<svg width="500" height="323" viewBox="0 0 500 323" fill="none" xmlns="http://www.w3.org/2000/svg">
<g filter="url(#filter0_d)">
<rect x="74" y="174" width="38" height="29" fill="#10BDE5"/>
<rect x="124" y="164" width="38" height="39" fill="#10BDE5"/>
<rect x="174" y="149" width="38" height="54" fill="#10BDE5"/>
<rect x="224" y="132" width="39" height="71" fill="#10BDE5"/>
<rect x="274" y="132" width="39" height="71" fill="#10BDE5"/>
<rect x="325" y="154" width="38" height="49" fill="#10BDE5"/>
<rect x="375" y="140" width="38" height="63" fill="#10BDE5"/>
<rect x="425" y="118" width="38" height="85" fill="#10BDE5"/>
<g filter="url(#filter1_d)">
<rect x="162" y="246" width="188" height="63" rx="10" fill="white"/>
</g>
<path d="M210 257H180C177.242 257 175 259.242 175 262V292C175 294.757 177.242 297 180 297H210C212.757 297 215 294.757 215 292V262C215 259.242 212.757 257 210 257Z" fill="#1976D2"/>
<path d="M208.75 277H202.5V272C202.5 270.62 203.62 270.75 205 270.75H207.5V264.5H202.5C198.358 264.5 195 267.858 195 272V277H190V283.25H195V297H202.5V283.25H206.25L208.75 277Z" fill="#FAFAFA"/>
<path d="M238.52 274.942H236.924V277H234.712V274.942H229.434V273.416L234.054 267.2H236.434L232.15 273.094H234.782V271.26H236.924V273.094H238.52V274.942ZM243.681 271.19C244.539 271.33 245.197 271.652 245.655 272.156C246.112 272.651 246.341 273.267 246.341 274.004C246.341 274.573 246.191 275.101 245.893 275.586C245.594 276.062 245.137 276.445 244.521 276.734C243.914 277.023 243.167 277.168 242.281 277.168C241.59 277.168 240.909 277.079 240.237 276.902C239.574 276.715 239.009 276.454 238.543 276.118L239.425 274.382C239.798 274.662 240.227 274.881 240.713 275.04C241.207 275.189 241.711 275.264 242.225 275.264C242.794 275.264 243.242 275.157 243.569 274.942C243.895 274.718 244.059 274.405 244.059 274.004C244.059 273.201 243.447 272.8 242.225 272.8H241.189V271.302L243.205 269.02H239.033V267.2H245.893V268.67L243.681 271.19ZM248.69 274.396C249.082 274.396 249.404 274.522 249.656 274.774C249.908 275.017 250.034 275.339 250.034 275.74C250.034 275.927 250.01 276.113 249.964 276.3C249.917 276.487 249.814 276.767 249.656 277.14L248.858 279.156H247.472L248.088 276.93C247.854 276.837 247.668 276.687 247.528 276.482C247.397 276.267 247.332 276.02 247.332 275.74C247.332 275.339 247.458 275.017 247.71 274.774C247.971 274.522 248.298 274.396 248.69 274.396ZM258.511 275.152V277H251.105V275.53L254.885 271.96C255.286 271.577 255.557 271.251 255.697 270.98C255.837 270.7 255.907 270.425 255.907 270.154C255.907 269.762 255.771 269.463 255.501 269.258C255.239 269.043 254.852 268.936 254.339 268.936C253.909 268.936 253.522 269.02 253.177 269.188C252.831 269.347 252.542 269.589 252.309 269.916L250.657 268.852C251.039 268.283 251.567 267.839 252.239 267.522C252.911 267.195 253.681 267.032 254.549 267.032C255.277 267.032 255.911 267.153 256.453 267.396C257.003 267.629 257.428 267.965 257.727 268.404C258.035 268.833 258.189 269.342 258.189 269.93C258.189 270.462 258.077 270.961 257.853 271.428C257.629 271.895 257.195 272.427 256.551 273.024L254.297 275.152H258.511ZM264.024 271.19C264.883 271.33 265.541 271.652 265.998 272.156C266.456 272.651 266.684 273.267 266.684 274.004C266.684 274.573 266.535 275.101 266.236 275.586C265.938 276.062 265.48 276.445 264.864 276.734C264.258 277.023 263.511 277.168 262.624 277.168C261.934 277.168 261.252 277.079 260.58 276.902C259.918 276.715 259.353 276.454 258.886 276.118L259.768 274.382C260.142 274.662 260.571 274.881 261.056 275.04C261.551 275.189 262.055 275.264 262.568 275.264C263.138 275.264 263.586 275.157 263.912 274.942C264.239 274.718 264.402 274.405 264.402 274.004C264.402 273.201 263.791 272.8 262.568 272.8H261.532V271.302L263.548 269.02H259.376V267.2H266.236V268.67L264.024 271.19ZM276.706 274.942H275.11V277H272.898V274.942H267.62V273.416L272.24 267.2H274.62L270.336 273.094H272.968V271.26H275.11V273.094H276.706V274.942ZM286.655 277.168C285.656 277.168 284.751 276.953 283.939 276.524C283.136 276.085 282.501 275.483 282.035 274.718C281.577 273.943 281.349 273.071 281.349 272.1C281.349 271.129 281.577 270.261 282.035 269.496C282.501 268.721 283.136 268.119 283.939 267.69C284.751 267.251 285.661 267.032 286.669 267.032C287.518 267.032 288.283 267.181 288.965 267.48C289.655 267.779 290.234 268.208 290.701 268.768L289.245 270.112C288.582 269.347 287.761 268.964 286.781 268.964C286.174 268.964 285.633 269.099 285.157 269.37C284.681 269.631 284.307 270 284.037 270.476C283.775 270.952 283.645 271.493 283.645 272.1C283.645 272.707 283.775 273.248 284.037 273.724C284.307 274.2 284.681 274.573 285.157 274.844C285.633 275.105 286.174 275.236 286.781 275.236C287.761 275.236 288.582 274.849 289.245 274.074L290.701 275.418C290.234 275.987 289.655 276.421 288.965 276.72C288.274 277.019 287.504 277.168 286.655 277.168ZM292.078 266.612H294.262V277H292.078V266.612ZM296.289 269.468H298.473V277H296.289V269.468ZM297.381 268.418C296.98 268.418 296.653 268.301 296.401 268.068C296.149 267.835 296.023 267.545 296.023 267.2C296.023 266.855 296.149 266.565 296.401 266.332C296.653 266.099 296.98 265.982 297.381 265.982C297.783 265.982 298.109 266.094 298.361 266.318C298.613 266.542 298.739 266.822 298.739 267.158C298.739 267.522 298.613 267.825 298.361 268.068C298.109 268.301 297.783 268.418 297.381 268.418ZM304.14 277.112C303.338 277.112 302.614 276.949 301.97 276.622C301.336 276.286 300.836 275.824 300.472 275.236C300.118 274.648 299.94 273.981 299.94 273.234C299.94 272.487 300.118 271.82 300.472 271.232C300.836 270.644 301.336 270.187 301.97 269.86C302.614 269.524 303.338 269.356 304.14 269.356C304.934 269.356 305.624 269.524 306.212 269.86C306.81 270.187 307.244 270.658 307.514 271.274L305.82 272.184C305.428 271.493 304.864 271.148 304.126 271.148C303.557 271.148 303.086 271.335 302.712 271.708C302.339 272.081 302.152 272.59 302.152 273.234C302.152 273.878 302.339 274.387 302.712 274.76C303.086 275.133 303.557 275.32 304.126 275.32C304.873 275.32 305.438 274.975 305.82 274.284L307.514 275.208C307.244 275.805 306.81 276.272 306.212 276.608C305.624 276.944 304.934 277.112 304.14 277.112ZM311.951 274.046L310.901 275.082V277H308.717V266.612H310.901V272.492L314.093 269.468H316.697L313.561 272.66L316.977 277H314.331L311.951 274.046ZM320.247 277.112C319.622 277.112 319.01 277.037 318.413 276.888C317.816 276.729 317.34 276.533 316.985 276.3L317.713 274.732C318.049 274.947 318.455 275.124 318.931 275.264C319.407 275.395 319.874 275.46 320.331 275.46C321.255 275.46 321.717 275.231 321.717 274.774C321.717 274.559 321.591 274.405 321.339 274.312C321.087 274.219 320.7 274.139 320.177 274.074C319.561 273.981 319.052 273.873 318.651 273.752C318.25 273.631 317.9 273.416 317.601 273.108C317.312 272.8 317.167 272.361 317.167 271.792C317.167 271.316 317.302 270.896 317.573 270.532C317.853 270.159 318.254 269.869 318.777 269.664C319.309 269.459 319.934 269.356 320.653 269.356C321.185 269.356 321.712 269.417 322.235 269.538C322.767 269.65 323.206 269.809 323.551 270.014L322.823 271.568C322.16 271.195 321.437 271.008 320.653 271.008C320.186 271.008 319.836 271.073 319.603 271.204C319.37 271.335 319.253 271.503 319.253 271.708C319.253 271.941 319.379 272.105 319.631 272.198C319.883 272.291 320.284 272.38 320.835 272.464C321.451 272.567 321.955 272.679 322.347 272.8C322.739 272.912 323.08 273.122 323.369 273.43C323.658 273.738 323.803 274.167 323.803 274.718C323.803 275.185 323.663 275.6 323.383 275.964C323.103 276.328 322.692 276.613 322.151 276.818C321.619 277.014 320.984 277.112 320.247 277.112Z" fill="#1976D2"/>
<path d="M232.5 283.97C232.173 283.97 231.913 284.057 231.72 284.23C231.527 284.403 231.393 284.68 231.32 285.06L231.17 285.78H232.84L232.76 286.21H231.09L230.14 291H229.64L230.6 286.21H229.63L229.71 285.78H230.68L230.84 284.99C230.933 284.517 231.12 284.157 231.4 283.91C231.687 283.663 232.057 283.54 232.51 283.54C232.717 283.54 232.91 283.57 233.09 283.63C233.27 283.69 233.413 283.777 233.52 283.89L233.28 284.25C233.08 284.063 232.82 283.97 232.5 283.97ZM234.922 286.88C235.155 286.5 235.452 286.217 235.812 286.03C236.179 285.837 236.622 285.74 237.142 285.74L237.052 286.23L236.892 286.22C236.299 286.22 235.812 286.397 235.432 286.75C235.052 287.103 234.792 287.627 234.652 288.32L234.112 291H233.612L234.652 285.78H235.142L234.922 286.88ZM239.641 291.04C238.934 291.04 238.371 290.843 237.951 290.45C237.538 290.057 237.331 289.53 237.331 288.87C237.331 288.277 237.458 287.743 237.711 287.27C237.971 286.797 238.328 286.423 238.781 286.15C239.234 285.877 239.748 285.74 240.321 285.74C241.028 285.74 241.588 285.937 242.001 286.33C242.421 286.717 242.631 287.243 242.631 287.91C242.631 288.503 242.501 289.04 242.241 289.52C241.988 289.993 241.634 290.367 241.181 290.64C240.728 290.907 240.214 291.04 239.641 291.04ZM239.681 290.59C240.148 290.59 240.564 290.477 240.931 290.25C241.304 290.023 241.598 289.71 241.811 289.31C242.024 288.903 242.131 288.447 242.131 287.94C242.131 287.387 241.968 286.957 241.641 286.65C241.321 286.343 240.868 286.19 240.281 286.19C239.814 286.19 239.394 286.307 239.021 286.54C238.654 286.767 238.364 287.083 238.151 287.49C237.938 287.89 237.831 288.34 237.831 288.84C237.831 289.393 237.991 289.823 238.311 290.13C238.638 290.437 239.094 290.59 239.681 290.59ZM251.042 285.74C251.629 285.74 252.079 285.887 252.392 286.18C252.705 286.467 252.862 286.87 252.862 287.39C252.862 287.57 252.842 287.767 252.802 287.98L252.192 291H251.692L252.302 287.98C252.335 287.827 252.352 287.657 252.352 287.47C252.352 287.063 252.232 286.75 251.992 286.53C251.752 286.303 251.402 286.19 250.942 286.19C250.369 286.19 249.889 286.35 249.502 286.67C249.122 286.983 248.872 287.44 248.752 288.04L248.152 291H247.652L248.262 287.98C248.295 287.827 248.312 287.657 248.312 287.47C248.312 287.063 248.192 286.75 247.952 286.53C247.712 286.303 247.362 286.19 246.902 286.19C246.322 286.19 245.839 286.36 245.452 286.7C245.065 287.033 244.809 287.52 244.682 288.16L244.112 291H243.612L244.652 285.78H245.142L244.942 286.76C245.189 286.413 245.489 286.157 245.842 285.99C246.195 285.823 246.592 285.74 247.032 285.74C247.512 285.74 247.899 285.843 248.192 286.05C248.485 286.25 248.679 286.537 248.772 286.91C249.032 286.523 249.355 286.233 249.742 286.04C250.129 285.84 250.562 285.74 251.042 285.74ZM258.815 284.46L258.215 287.45H261.935L261.845 287.91H258.125L257.505 291H256.995L258.395 284H263.075L262.975 284.46H258.815ZM268.638 285.78L267.598 291H267.118L267.318 289.98C267.065 290.313 266.748 290.573 266.368 290.76C265.995 290.947 265.578 291.04 265.118 291.04C264.438 291.04 263.891 290.847 263.478 290.46C263.071 290.067 262.868 289.537 262.868 288.87C262.868 288.277 262.995 287.743 263.248 287.27C263.501 286.79 263.851 286.417 264.298 286.15C264.751 285.877 265.258 285.74 265.818 285.74C266.358 285.74 266.805 285.857 267.158 286.09C267.511 286.323 267.751 286.653 267.878 287.08L268.138 285.78H268.638ZM265.218 290.59C265.685 290.59 266.101 290.477 266.468 290.25C266.841 290.023 267.135 289.71 267.348 289.31C267.561 288.903 267.668 288.447 267.668 287.94C267.668 287.387 267.505 286.957 267.178 286.65C266.858 286.343 266.405 286.19 265.818 286.19C265.351 286.19 264.931 286.307 264.558 286.54C264.191 286.767 263.901 287.083 263.688 287.49C263.475 287.89 263.368 288.34 263.368 288.84C263.368 289.393 263.528 289.823 263.848 290.13C264.175 290.437 264.631 290.59 265.218 290.59ZM271.966 291.04C271.246 291.04 270.673 290.843 270.246 290.45C269.826 290.057 269.616 289.53 269.616 288.87C269.616 288.277 269.743 287.743 269.996 287.27C270.256 286.79 270.613 286.417 271.066 286.15C271.526 285.877 272.043 285.74 272.616 285.74C273.083 285.74 273.483 285.823 273.816 285.99C274.149 286.15 274.409 286.393 274.596 286.72L274.186 286.97C273.873 286.45 273.339 286.19 272.586 286.19C272.113 286.19 271.689 286.307 271.316 286.54C270.943 286.767 270.649 287.08 270.436 287.48C270.223 287.88 270.116 288.333 270.116 288.84C270.116 289.393 270.279 289.823 270.606 290.13C270.933 290.437 271.399 290.59 272.006 290.59C272.353 290.59 272.676 290.523 272.976 290.39C273.283 290.257 273.536 290.07 273.736 289.83L274.086 290.11C273.859 290.403 273.556 290.633 273.176 290.8C272.803 290.96 272.399 291.04 271.966 291.04ZM275.585 288.5C275.572 288.647 275.565 288.757 275.565 288.83C275.565 289.397 275.728 289.833 276.055 290.14C276.382 290.44 276.862 290.59 277.495 290.59C277.862 290.59 278.198 290.53 278.505 290.41C278.818 290.283 279.078 290.11 279.285 289.89L279.515 290.24C279.282 290.493 278.982 290.69 278.615 290.83C278.255 290.97 277.868 291.04 277.455 291.04C276.715 291.04 276.132 290.847 275.705 290.46C275.285 290.073 275.075 289.537 275.075 288.85C275.075 288.263 275.198 287.733 275.445 287.26C275.692 286.787 276.032 286.417 276.465 286.15C276.898 285.877 277.385 285.74 277.925 285.74C278.605 285.74 279.145 285.933 279.545 286.32C279.945 286.707 280.145 287.24 280.145 287.92C280.145 288.08 280.125 288.273 280.085 288.5H275.585ZM277.915 286.17C277.348 286.17 276.858 286.347 276.445 286.7C276.038 287.053 275.772 287.523 275.645 288.11H279.665C279.672 288.05 279.675 287.963 279.675 287.85C279.675 287.323 279.515 286.913 279.195 286.62C278.875 286.32 278.448 286.17 277.915 286.17ZM284.652 285.74C285.332 285.74 285.878 285.937 286.292 286.33C286.705 286.717 286.912 287.243 286.912 287.91C286.912 288.503 286.782 289.04 286.522 289.52C286.268 289.993 285.915 290.367 285.462 290.64C285.015 290.907 284.512 291.04 283.952 291.04C283.405 291.04 282.955 290.923 282.602 290.69C282.248 290.45 282.008 290.11 281.882 289.67L281.622 291H281.132L282.612 283.58H283.112L282.482 286.76C282.735 286.433 283.045 286.183 283.412 286.01C283.785 285.83 284.198 285.74 284.652 285.74ZM283.962 290.59C284.428 290.59 284.845 290.477 285.212 290.25C285.585 290.017 285.875 289.7 286.082 289.3C286.295 288.9 286.402 288.447 286.402 287.94C286.402 287.387 286.238 286.957 285.912 286.65C285.592 286.343 285.138 286.19 284.552 286.19C284.085 286.19 283.665 286.303 283.292 286.53C282.925 286.757 282.635 287.073 282.422 287.48C282.208 287.88 282.102 288.333 282.102 288.84C282.102 289.393 282.265 289.823 282.592 290.13C282.918 290.437 283.375 290.59 283.962 290.59ZM290.11 291.04C289.403 291.04 288.84 290.843 288.42 290.45C288.006 290.057 287.8 289.53 287.8 288.87C287.8 288.277 287.926 287.743 288.18 287.27C288.44 286.797 288.796 286.423 289.25 286.15C289.703 285.877 290.216 285.74 290.79 285.74C291.496 285.74 292.056 285.937 292.47 286.33C292.89 286.717 293.1 287.243 293.1 287.91C293.1 288.503 292.97 289.04 292.71 289.52C292.456 289.993 292.103 290.367 291.65 290.64C291.196 290.907 290.683 291.04 290.11 291.04ZM290.15 290.59C290.616 290.59 291.033 290.477 291.4 290.25C291.773 290.023 292.066 289.71 292.28 289.31C292.493 288.903 292.6 288.447 292.6 287.94C292.6 287.387 292.436 286.957 292.11 286.65C291.79 286.343 291.336 286.19 290.75 286.19C290.283 286.19 289.863 286.307 289.49 286.54C289.123 286.767 288.833 287.083 288.62 287.49C288.406 287.89 288.3 288.34 288.3 288.84C288.3 289.393 288.46 289.823 288.78 290.13C289.106 290.437 289.563 290.59 290.15 290.59ZM296.311 291.04C295.604 291.04 295.041 290.843 294.621 290.45C294.207 290.057 294.001 289.53 294.001 288.87C294.001 288.277 294.127 287.743 294.381 287.27C294.641 286.797 294.997 286.423 295.451 286.15C295.904 285.877 296.417 285.74 296.991 285.74C297.697 285.74 298.257 285.937 298.671 286.33C299.091 286.717 299.301 287.243 299.301 287.91C299.301 288.503 299.171 289.04 298.911 289.52C298.657 289.993 298.304 290.367 297.851 290.64C297.397 290.907 296.884 291.04 296.311 291.04ZM296.351 290.59C296.817 290.59 297.234 290.477 297.601 290.25C297.974 290.023 298.267 289.71 298.481 289.31C298.694 288.903 298.801 288.447 298.801 287.94C298.801 287.387 298.637 286.957 298.311 286.65C297.991 286.343 297.537 286.19 296.951 286.19C296.484 286.19 296.064 286.307 295.691 286.54C295.324 286.767 295.034 287.083 294.821 287.49C294.607 287.89 294.501 288.34 294.501 288.84C294.501 289.393 294.661 289.823 294.981 290.13C295.307 290.437 295.764 290.59 296.351 290.59ZM303.102 287.91L304.982 291H304.402L302.712 288.21L301.092 289.46L300.782 291H300.282L301.762 283.58H302.262L301.222 288.81L305.112 285.78H305.842L303.102 287.91Z" fill="#59595B"/>
<g filter="url(#filter2_d)">
<rect x="312" y="23" width="151" height="63" rx="10" fill="white"/>
</g>
<path d="M386.252 40.848C386.737 41.0907 387.106 41.408 387.358 41.8C387.619 42.192 387.75 42.6447 387.75 43.158C387.75 43.7647 387.577 44.2967 387.232 44.754C386.887 45.202 386.401 45.552 385.776 45.804C385.151 46.0467 384.427 46.168 383.606 46.168C382.785 46.168 382.061 46.0467 381.436 45.804C380.82 45.552 380.339 45.202 379.994 44.754C379.658 44.2967 379.49 43.7647 379.49 43.158C379.49 42.6447 379.616 42.192 379.868 41.8C380.129 41.408 380.498 41.0907 380.974 40.848C380.61 40.624 380.33 40.344 380.134 40.008C379.938 39.6627 379.84 39.2707 379.84 38.832C379.84 38.2627 379.999 37.768 380.316 37.348C380.633 36.928 381.077 36.606 381.646 36.382C382.215 36.1487 382.869 36.032 383.606 36.032C384.353 36.032 385.011 36.1487 385.58 36.382C386.159 36.606 386.607 36.928 386.924 37.348C387.241 37.768 387.4 38.2627 387.4 38.832C387.4 39.2707 387.302 39.6627 387.106 40.008C386.91 40.344 386.625 40.624 386.252 40.848ZM383.606 37.698C383.149 37.698 382.78 37.81 382.5 38.034C382.229 38.2487 382.094 38.5473 382.094 38.93C382.094 39.3033 382.229 39.5973 382.5 39.812C382.771 40.0267 383.139 40.134 383.606 40.134C384.073 40.134 384.446 40.0267 384.726 39.812C385.006 39.5973 385.146 39.3033 385.146 38.93C385.146 38.5473 385.006 38.2487 384.726 38.034C384.446 37.81 384.073 37.698 383.606 37.698ZM383.606 44.502C384.175 44.502 384.623 44.376 384.95 44.124C385.286 43.8627 385.454 43.5173 385.454 43.088C385.454 42.6587 385.286 42.318 384.95 42.066C384.623 41.814 384.175 41.688 383.606 41.688C383.046 41.688 382.603 41.814 382.276 42.066C381.949 42.318 381.786 42.6587 381.786 43.088C381.786 43.5267 381.949 43.872 382.276 44.124C382.603 44.376 383.046 44.502 383.606 44.502ZM395.494 40.848C395.98 41.0907 396.348 41.408 396.6 41.8C396.862 42.192 396.992 42.6447 396.992 43.158C396.992 43.7647 396.82 44.2967 396.474 44.754C396.129 45.202 395.644 45.552 395.018 45.804C394.393 46.0467 393.67 46.168 392.848 46.168C392.027 46.168 391.304 46.0467 390.678 45.804C390.062 45.552 389.582 45.202 389.236 44.754C388.9 44.2967 388.732 43.7647 388.732 43.158C388.732 42.6447 388.858 42.192 389.11 41.8C389.372 41.408 389.74 41.0907 390.216 40.848C389.852 40.624 389.572 40.344 389.376 40.008C389.18 39.6627 389.082 39.2707 389.082 38.832C389.082 38.2627 389.241 37.768 389.558 37.348C389.876 36.928 390.319 36.606 390.888 36.382C391.458 36.1487 392.111 36.032 392.848 36.032C393.595 36.032 394.253 36.1487 394.822 36.382C395.401 36.606 395.849 36.928 396.166 37.348C396.484 37.768 396.642 38.2627 396.642 38.832C396.642 39.2707 396.544 39.6627 396.348 40.008C396.152 40.344 395.868 40.624 395.494 40.848ZM392.848 37.698C392.391 37.698 392.022 37.81 391.742 38.034C391.472 38.2487 391.336 38.5473 391.336 38.93C391.336 39.3033 391.472 39.5973 391.742 39.812C392.013 40.0267 392.382 40.134 392.848 40.134C393.315 40.134 393.688 40.0267 393.968 39.812C394.248 39.5973 394.388 39.3033 394.388 38.93C394.388 38.5473 394.248 38.2487 393.968 38.034C393.688 37.81 393.315 37.698 392.848 37.698ZM392.848 44.502C393.418 44.502 393.866 44.376 394.192 44.124C394.528 43.8627 394.696 43.5173 394.696 43.088C394.696 42.6587 394.528 42.318 394.192 42.066C393.866 41.814 393.418 41.688 392.848 41.688C392.288 41.688 391.845 41.814 391.518 42.066C391.192 42.318 391.028 42.6587 391.028 43.088C391.028 43.5267 391.192 43.872 391.518 44.124C391.845 44.376 392.288 44.502 392.848 44.502ZM399.469 43.396C399.861 43.396 400.183 43.522 400.435 43.774C400.687 44.0167 400.813 44.3387 400.813 44.74C400.813 44.9267 400.79 45.1133 400.743 45.3C400.696 45.4867 400.594 45.7667 400.435 46.14L399.637 48.156H398.251L398.867 45.93C398.634 45.8367 398.447 45.6873 398.307 45.482C398.176 45.2673 398.111 45.02 398.111 44.74C398.111 44.3387 398.237 44.0167 398.489 43.774C398.75 43.522 399.077 43.396 399.469 43.396ZM406.371 39.854C406.997 39.854 407.566 39.98 408.079 40.232C408.593 40.484 408.999 40.8433 409.297 41.31C409.596 41.7673 409.745 42.2993 409.745 42.906C409.745 43.5593 409.582 44.1333 409.255 44.628C408.929 45.1227 408.481 45.5053 407.911 45.776C407.351 46.0373 406.726 46.168 406.035 46.168C404.663 46.168 403.59 45.748 402.815 44.908C402.041 44.068 401.653 42.8687 401.653 41.31C401.653 40.1993 401.863 39.2473 402.283 38.454C402.703 37.6607 403.287 37.0587 404.033 36.648C404.789 36.2373 405.662 36.032 406.651 36.032C407.174 36.032 407.673 36.0927 408.149 36.214C408.635 36.326 409.045 36.4893 409.381 36.704L408.541 38.37C408.056 38.0433 407.445 37.88 406.707 37.88C405.877 37.88 405.219 38.1227 404.733 38.608C404.248 39.0933 403.987 39.798 403.949 40.722C404.528 40.1433 405.335 39.854 406.371 39.854ZM405.909 44.474C406.395 44.474 406.787 44.3433 407.085 44.082C407.393 43.8207 407.547 43.466 407.547 43.018C407.547 42.57 407.393 42.2153 407.085 41.954C406.787 41.6833 406.385 41.548 405.881 41.548C405.387 41.548 404.981 41.688 404.663 41.968C404.346 42.2387 404.187 42.5887 404.187 43.018C404.187 43.4473 404.341 43.7973 404.649 44.068C404.957 44.3387 405.377 44.474 405.909 44.474ZM418.185 36.2V37.67L414.545 46H412.081L415.595 38.048H412.347V39.644H410.331V36.2H418.185ZM422.322 39.882C423.703 39.882 424.721 40.1573 425.374 40.708C426.037 41.2587 426.368 41.996 426.368 42.92C426.368 43.5173 426.219 44.0633 425.92 44.558C425.621 45.0433 425.164 45.4353 424.548 45.734C423.941 46.0233 423.19 46.168 422.294 46.168C421.603 46.168 420.922 46.0793 420.25 45.902C419.587 45.7153 419.023 45.454 418.556 45.118L419.452 43.382C419.825 43.662 420.255 43.8813 420.74 44.04C421.225 44.1893 421.725 44.264 422.238 44.264C422.807 44.264 423.255 44.152 423.582 43.928C423.909 43.704 424.072 43.3913 424.072 42.99C424.072 42.57 423.899 42.2527 423.554 42.038C423.218 41.8233 422.63 41.716 421.79 41.716H419.284L419.788 36.2H425.766V38.02H421.678L421.524 39.882H422.322ZM386.25 53V60H384.63V57.13H381.45V60H379.83V53H381.45V55.76H384.63V53H386.25ZM393.216 54.62V60H391.736V59.36C391.53 59.5933 391.283 59.7733 390.996 59.9C390.71 60.02 390.4 60.08 390.066 60.08C389.36 60.08 388.8 59.8767 388.386 59.47C387.973 59.0633 387.766 58.46 387.766 57.66V54.62H389.326V57.43C389.326 58.2967 389.69 58.73 390.416 58.73C390.79 58.73 391.09 58.61 391.316 58.37C391.543 58.1233 391.656 57.76 391.656 57.28V54.62H393.216ZM401.551 54.54C402.225 54.54 402.758 54.74 403.151 55.14C403.551 55.5333 403.751 56.1267 403.751 56.92V60H402.191V57.16C402.191 56.7333 402.101 56.4167 401.921 56.21C401.748 55.9967 401.498 55.89 401.171 55.89C400.805 55.89 400.515 56.01 400.301 56.25C400.088 56.4833 399.981 56.8333 399.981 57.3V60H398.421V57.16C398.421 56.3133 398.081 55.89 397.401 55.89C397.041 55.89 396.755 56.01 396.541 56.25C396.328 56.4833 396.221 56.8333 396.221 57.3V60H394.661V54.62H396.151V55.24C396.351 55.0133 396.595 54.84 396.881 54.72C397.175 54.6 397.495 54.54 397.841 54.54C398.221 54.54 398.565 54.6167 398.871 54.77C399.178 54.9167 399.425 55.1333 399.611 55.42C399.831 55.14 400.108 54.9233 400.441 54.77C400.781 54.6167 401.151 54.54 401.551 54.54ZM407.32 54.54C408.153 54.54 408.793 54.74 409.24 55.14C409.686 55.5333 409.91 56.13 409.91 56.93V60H408.45V59.33C408.156 59.83 407.61 60.08 406.81 60.08C406.396 60.08 406.036 60.01 405.73 59.87C405.43 59.73 405.2 59.5367 405.04 59.29C404.88 59.0433 404.8 58.7633 404.8 58.45C404.8 57.95 404.986 57.5567 405.36 57.27C405.74 56.9833 406.323 56.84 407.11 56.84H408.35C408.35 56.5 408.246 56.24 408.04 56.06C407.833 55.8733 407.523 55.78 407.11 55.78C406.823 55.78 406.54 55.8267 406.26 55.92C405.986 56.0067 405.753 56.1267 405.56 56.28L405 55.19C405.293 54.9833 405.643 54.8233 406.05 54.71C406.463 54.5967 406.886 54.54 407.32 54.54ZM407.2 59.03C407.466 59.03 407.703 58.97 407.91 58.85C408.116 58.7233 408.263 58.54 408.35 58.3V57.75H407.28C406.64 57.75 406.32 57.96 406.32 58.38C406.32 58.58 406.396 58.74 406.55 58.86C406.71 58.9733 406.926 59.03 407.2 59.03ZM414.592 54.54C415.258 54.54 415.795 54.74 416.202 55.14C416.615 55.54 416.822 56.1333 416.822 56.92V60H415.262V57.16C415.262 56.7333 415.168 56.4167 414.982 56.21C414.795 55.9967 414.525 55.89 414.172 55.89C413.778 55.89 413.465 56.0133 413.232 56.26C412.998 56.5 412.882 56.86 412.882 57.34V60H411.322V54.62H412.812V55.25C413.018 55.0233 413.275 54.85 413.582 54.73C413.888 54.6033 414.225 54.54 414.592 54.54ZM383.18 74.12C382.467 74.12 381.82 73.9667 381.24 73.66C380.667 73.3467 380.213 72.9167 379.88 72.37C379.553 71.8167 379.39 71.1933 379.39 70.5C379.39 69.8067 379.553 69.1867 379.88 68.64C380.213 68.0867 380.667 67.6567 381.24 67.35C381.82 67.0367 382.47 66.88 383.19 66.88C383.797 66.88 384.343 66.9867 384.83 67.2C385.323 67.4133 385.737 67.72 386.07 68.12L385.03 69.08C384.557 68.5333 383.97 68.26 383.27 68.26C382.837 68.26 382.45 68.3567 382.11 68.55C381.77 68.7367 381.503 69 381.31 69.34C381.123 69.68 381.03 70.0667 381.03 70.5C381.03 70.9333 381.123 71.32 381.31 71.66C381.503 72 381.77 72.2667 382.11 72.46C382.45 72.6467 382.837 72.74 383.27 72.74C383.97 72.74 384.557 72.4633 385.03 71.91L386.07 72.87C385.737 73.2767 385.323 73.5867 384.83 73.8C384.337 74.0133 383.787 74.12 383.18 74.12ZM387.054 66.58H388.614V74H387.054V66.58ZM390.062 68.62H391.622V74H390.062V68.62ZM390.842 67.87C390.555 67.87 390.322 67.7867 390.142 67.62C389.962 67.4533 389.872 67.2467 389.872 67C389.872 66.7533 389.962 66.5467 390.142 66.38C390.322 66.2133 390.555 66.13 390.842 66.13C391.128 66.13 391.362 66.21 391.542 66.37C391.722 66.53 391.812 66.73 391.812 66.97C391.812 67.23 391.722 67.4467 391.542 67.62C391.362 67.7867 391.128 67.87 390.842 67.87ZM395.67 74.08C395.096 74.08 394.58 73.9633 394.12 73.73C393.666 73.49 393.31 73.16 393.05 72.74C392.796 72.32 392.67 71.8433 392.67 71.31C392.67 70.7767 392.796 70.3 393.05 69.88C393.31 69.46 393.666 69.1333 394.12 68.9C394.58 68.66 395.096 68.54 395.67 68.54C396.236 68.54 396.73 68.66 397.15 68.9C397.576 69.1333 397.886 69.47 398.08 69.91L396.87 70.56C396.59 70.0667 396.186 69.82 395.66 69.82C395.253 69.82 394.916 69.9533 394.65 70.22C394.383 70.4867 394.25 70.85 394.25 71.31C394.25 71.77 394.383 72.1333 394.65 72.4C394.916 72.6667 395.253 72.8 395.66 72.8C396.193 72.8 396.596 72.5533 396.87 72.06L398.08 72.72C397.886 73.1467 397.576 73.48 397.15 73.72C396.73 73.96 396.236 74.08 395.67 74.08ZM401.249 71.89L400.499 72.63V74H398.939V66.58H400.499V70.78L402.779 68.62H404.639L402.399 70.9L404.839 74H402.949L401.249 71.89ZM407.175 74.08C406.728 74.08 406.291 74.0267 405.865 73.92C405.438 73.8067 405.098 73.6667 404.845 73.5L405.365 72.38C405.605 72.5333 405.895 72.66 406.235 72.76C406.575 72.8533 406.908 72.9 407.235 72.9C407.895 72.9 408.225 72.7367 408.225 72.41C408.225 72.2567 408.135 72.1467 407.955 72.08C407.775 72.0133 407.498 71.9567 407.125 71.91C406.685 71.8433 406.321 71.7667 406.035 71.68C405.748 71.5933 405.498 71.44 405.285 71.22C405.078 71 404.975 70.6867 404.975 70.28C404.975 69.94 405.071 69.64 405.265 69.38C405.465 69.1133 405.751 68.9067 406.125 68.76C406.505 68.6133 406.951 68.54 407.465 68.54C407.845 68.54 408.221 68.5833 408.595 68.67C408.975 68.75 409.288 68.8633 409.535 69.01L409.015 70.12C408.541 69.8533 408.025 69.72 407.465 69.72C407.131 69.72 406.881 69.7667 406.715 69.86C406.548 69.9533 406.465 70.0733 406.465 70.22C406.465 70.3867 406.555 70.5033 406.735 70.57C406.915 70.6367 407.201 70.7 407.595 70.76C408.035 70.8333 408.395 70.9133 408.675 71C408.955 71.08 409.198 71.23 409.405 71.45C409.611 71.67 409.715 71.9767 409.715 72.37C409.715 72.7033 409.615 73 409.415 73.26C409.215 73.52 408.921 73.7233 408.535 73.87C408.155 74.01 407.701 74.08 407.175 74.08Z" fill="#59595B"/>
<g clip-path="url(#clip0)">
<path d="M361.646 36.7224C361.394 36.4681 361.043 36.3368 360.686 36.3629L355.067 36.7738C354.393 36.8231 353.886 37.4098 353.935 38.0843C353.984 38.7589 354.571 39.2634 355.246 39.2162L357.581 39.0454L349.355 47.2815L339.789 39.1806C339.303 38.7687 338.582 38.7986 338.132 39.2491L326.359 51.0223C325.881 51.5005 325.881 52.2758 326.359 52.754C326.598 52.9931 326.911 53.1127 327.225 53.1127C327.538 53.1127 327.851 52.9932 328.09 52.754L339.066 41.7779L348.633 49.8794C349.119 50.2915 349.841 50.2612 350.291 49.8103L359.28 40.8097L359.094 43.052C359.038 43.7259 359.539 44.3174 360.213 44.3733C360.248 44.3762 360.282 44.3775 360.316 44.3775C360.946 44.3774 361.482 43.8935 361.535 43.254L361.996 37.6851C362.025 37.3285 361.898 36.9768 361.646 36.7224Z" fill="#44D4DD"/>
<path d="M336.922 50.7568C336.465 50.5675 335.938 50.6722 335.588 51.0223L330.5 56.1104C330.27 56.3401 330.141 56.6515 330.141 56.9763V70.416C330.141 71.0922 330.689 71.6405 331.365 71.6405H336.453C337.13 71.6405 337.678 71.0922 337.678 70.416V51.8881C337.678 51.3928 337.38 50.9464 336.922 50.7568Z" fill="#44D4DD"/>
<path d="M342.408 51.0222C342.058 50.6721 341.531 50.5675 341.073 50.7568C340.616 50.9464 340.317 51.3928 340.317 51.8882V70.4159C340.317 71.0922 340.866 71.6404 341.542 71.6404H346.63C347.306 71.6404 347.854 71.0922 347.854 70.4159V56.9763C347.854 56.6516 347.725 56.3402 347.496 56.1105L342.408 51.0222Z" fill="#44D4DD"/>
<path d="M357.275 50.7568C356.817 50.5675 356.29 50.6722 355.94 51.0223L350.852 56.1105C350.622 56.3402 350.493 56.6516 350.493 56.9763V70.4158C350.493 71.0921 351.042 71.6403 351.718 71.6403H356.806C357.482 71.6403 358.03 71.0921 358.03 70.4158V51.8881C358.031 51.3928 357.732 50.9464 357.275 50.7568Z" fill="#44D4DD"/>
</g>
<rect x="10" y="6" width="264" height="48" rx="10" fill="white"/>
<path d="M36.556 29.51C37.4893 29.51 38.2267 29.7807 38.768 30.322C39.3187 30.8633 39.594 31.666 39.594 32.73V37H38.25V32.884C38.25 32.1653 38.082 31.624 37.746 31.26C37.4193 30.896 36.948 30.714 36.332 30.714C35.6507 30.714 35.1093 30.9287 34.708 31.358C34.3067 31.778 34.106 32.3847 34.106 33.178V37H32.762V32.884C32.762 32.1653 32.594 31.624 32.258 31.26C31.9313 30.896 31.46 30.714 30.844 30.714C30.1627 30.714 29.6213 30.9287 29.22 31.358C28.8187 31.778 28.618 32.3847 28.618 33.178V37H27.274V29.58H28.562V30.686C28.8327 30.3033 29.1873 30.014 29.626 29.818C30.0647 29.6127 30.564 29.51 31.124 29.51C31.7027 29.51 32.216 29.6267 32.664 29.86C33.112 30.0933 33.4573 30.434 33.7 30.882C33.98 30.4527 34.3673 30.1167 34.862 29.874C35.366 29.6313 35.9307 29.51 36.556 29.51ZM48.4963 29.58L44.8983 37.742C44.5809 38.498 44.2076 39.03 43.7783 39.338C43.3583 39.646 42.8496 39.8 42.2523 39.8C41.8883 39.8 41.5336 39.7393 41.1883 39.618C40.8523 39.506 40.5722 39.338 40.3482 39.114L40.9223 38.106C41.3049 38.47 41.7483 38.652 42.2523 38.652C42.5789 38.652 42.8496 38.5633 43.0643 38.386C43.2883 38.218 43.4889 37.924 43.6663 37.504L43.9043 36.986L40.6282 29.58H42.0283L44.6183 35.516L47.1803 29.58H48.4963ZM53.6846 29.51C54.4032 29.51 55.0472 29.6687 55.6166 29.986C56.1859 30.3033 56.6292 30.7467 56.9466 31.316C57.2732 31.8853 57.4366 32.5433 57.4366 33.29C57.4366 34.0367 57.2732 34.6993 56.9466 35.278C56.6292 35.8473 56.1859 36.2907 55.6166 36.608C55.0472 36.9253 54.4032 37.084 53.6846 37.084C53.1339 37.084 52.6299 36.9767 52.1726 36.762C51.7152 36.5473 51.3372 36.2347 51.0386 35.824V37H49.7506V26.612H51.0946V30.7C51.3932 30.308 51.7666 30.014 52.2146 29.818C52.6626 29.6127 53.1526 29.51 53.6846 29.51ZM53.5726 35.908C54.0486 35.908 54.4732 35.8007 54.8466 35.586C55.2292 35.362 55.5279 35.054 55.7426 34.662C55.9666 34.2607 56.0786 33.8033 56.0786 33.29C56.0786 32.7767 55.9666 32.324 55.7426 31.932C55.5279 31.5307 55.2292 31.2227 54.8466 31.008C54.4732 30.7933 54.0486 30.686 53.5726 30.686C53.1059 30.686 52.6812 30.7933 52.2986 31.008C51.9159 31.2227 51.6172 31.5307 51.4026 31.932C51.1879 32.324 51.0806 32.7767 51.0806 33.29C51.0806 33.8033 51.1879 34.2607 51.4026 34.662C51.6172 35.054 51.9159 35.362 52.2986 35.586C52.6812 35.8007 53.1059 35.908 53.5726 35.908ZM60.5815 30.826C60.8149 30.3967 61.1602 30.07 61.6175 29.846C62.0749 29.622 62.6302 29.51 63.2835 29.51V30.812C63.2089 30.8027 63.1062 30.798 62.9755 30.798C62.2475 30.798 61.6735 31.0173 61.2535 31.456C60.8429 31.8853 60.6375 32.5013 60.6375 33.304V37H59.2935V29.58H60.5815V30.826ZM67.6283 29.51C68.655 29.51 69.439 29.762 69.9803 30.266C70.531 30.77 70.8063 31.5213 70.8063 32.52V37H69.5323V36.02C69.3083 36.3653 68.9863 36.6313 68.5663 36.818C68.1557 36.9953 67.6657 37.084 67.0963 37.084C66.2657 37.084 65.5983 36.8833 65.0943 36.482C64.5997 36.0807 64.3523 35.5533 64.3523 34.9C64.3523 34.2467 64.5903 33.724 65.0663 33.332C65.5423 32.9307 66.2983 32.73 67.3343 32.73H69.4623V32.464C69.4623 31.8853 69.2943 31.442 68.9583 31.134C68.6223 30.826 68.1277 30.672 67.4743 30.672C67.0357 30.672 66.6063 30.7467 66.1863 30.896C65.7663 31.036 65.4117 31.2273 65.1223 31.47L64.5623 30.462C64.945 30.154 65.4023 29.9207 65.9343 29.762C66.4663 29.594 67.031 29.51 67.6283 29.51ZM67.3203 36.048C67.8337 36.048 68.277 35.936 68.6503 35.712C69.0237 35.4787 69.2943 35.152 69.4623 34.732V33.696H67.3903C66.2517 33.696 65.6823 34.0787 65.6823 34.844C65.6823 35.2173 65.827 35.5113 66.1163 35.726C66.4057 35.9407 66.807 36.048 67.3203 36.048ZM77.2555 29.51C78.1982 29.51 78.9449 29.7853 79.4955 30.336C80.0555 30.8773 80.3355 31.6753 80.3355 32.73V37H78.9915V32.884C78.9915 32.1653 78.8189 31.624 78.4735 31.26C78.1282 30.896 77.6335 30.714 76.9895 30.714C76.2615 30.714 75.6875 30.9287 75.2675 31.358C74.8475 31.778 74.6375 32.3847 74.6375 33.178V37H73.2935V29.58H74.5815V30.7C74.8522 30.3173 75.2162 30.0233 75.6735 29.818C76.1402 29.6127 76.6675 29.51 77.2555 29.51ZM89.8638 26.612V37H88.5758V35.824C88.2772 36.2347 87.8992 36.5473 87.4418 36.762C86.9845 36.9767 86.4805 37.084 85.9298 37.084C85.2112 37.084 84.5672 36.9253 83.9978 36.608C83.4285 36.2907 82.9805 35.8473 82.6538 35.278C82.3365 34.6993 82.1778 34.0367 82.1778 33.29C82.1778 32.5433 82.3365 31.8853 82.6538 31.316C82.9805 30.7467 83.4285 30.3033 83.9978 29.986C84.5672 29.6687 85.2112 29.51 85.9298 29.51C86.4618 29.51 86.9518 29.6127 87.3998 29.818C87.8478 30.014 88.2212 30.308 88.5198 30.7V26.612H89.8638ZM86.0418 35.908C86.5085 35.908 86.9332 35.8007 87.3158 35.586C87.6985 35.362 87.9972 35.054 88.2118 34.662C88.4265 34.2607 88.5338 33.8033 88.5338 33.29C88.5338 32.7767 88.4265 32.324 88.2118 31.932C87.9972 31.5307 87.6985 31.2227 87.3158 31.008C86.9332 30.7933 86.5085 30.686 86.0418 30.686C85.5658 30.686 85.1365 30.7933 84.7538 31.008C84.3805 31.2227 84.0818 31.5307 83.8578 31.932C83.6432 32.324 83.5358 32.7767 83.5358 33.29C83.5358 33.8033 83.6432 34.2607 83.8578 34.662C84.0818 35.054 84.3805 35.362 84.7538 35.586C85.1365 35.8007 85.5658 35.908 86.0418 35.908ZM99.1128 33.332C99.1128 33.4347 99.1035 33.57 99.0848 33.738H93.0648C93.1488 34.3913 93.4335 34.9187 93.9188 35.32C94.4135 35.712 95.0248 35.908 95.7528 35.908C96.6395 35.908 97.3535 35.6093 97.8948 35.012L98.6368 35.88C98.3008 36.272 97.8808 36.5707 97.3768 36.776C96.8821 36.9813 96.3268 37.084 95.7108 37.084C94.9268 37.084 94.2315 36.9253 93.6248 36.608C93.0181 36.2813 92.5468 35.8287 92.2108 35.25C91.8841 34.6713 91.7208 34.018 91.7208 33.29C91.7208 32.5713 91.8795 31.9227 92.1968 31.344C92.5235 30.7653 92.9668 30.3173 93.5268 30C94.0961 29.6733 94.7355 29.51 95.4448 29.51C96.1541 29.51 96.7841 29.6733 97.3348 30C97.8948 30.3173 98.3288 30.7653 98.6368 31.344C98.9541 31.9227 99.1128 32.5853 99.1128 33.332ZM95.4448 30.644C94.8008 30.644 94.2595 30.84 93.8208 31.232C93.3915 31.624 93.1395 32.1373 93.0648 32.772H97.8248C97.7501 32.1467 97.4935 31.638 97.0548 31.246C96.6255 30.8447 96.0888 30.644 95.4448 30.644ZM107.979 26.612V37H106.691V35.824C106.392 36.2347 106.014 36.5473 105.557 36.762C105.1 36.9767 104.596 37.084 104.045 37.084C103.326 37.084 102.682 36.9253 102.113 36.608C101.544 36.2907 101.096 35.8473 100.769 35.278C100.452 34.6993 100.293 34.0367 100.293 33.29C100.293 32.5433 100.452 31.8853 100.769 31.316C101.096 30.7467 101.544 30.3033 102.113 29.986C102.682 29.6687 103.326 29.51 104.045 29.51C104.577 29.51 105.067 29.6127 105.515 29.818C105.963 30.014 106.336 30.308 106.635 30.7V26.612H107.979ZM104.157 35.908C104.624 35.908 105.048 35.8007 105.431 35.586C105.814 35.362 106.112 35.054 106.327 34.662C106.542 34.2607 106.649 33.8033 106.649 33.29C106.649 32.7767 106.542 32.324 106.327 31.932C106.112 31.5307 105.814 31.2227 105.431 31.008C105.048 30.7933 104.624 30.686 104.157 30.686C103.681 30.686 103.252 30.7933 102.869 31.008C102.496 31.2227 102.197 31.5307 101.973 31.932C101.758 32.324 101.651 32.7767 101.651 33.29C101.651 33.8033 101.758 34.2607 101.973 34.662C102.197 35.054 102.496 35.362 102.869 35.586C103.252 35.8007 103.681 35.908 104.157 35.908ZM110.844 37.084C110.583 37.084 110.359 36.9953 110.172 36.818C109.985 36.6313 109.892 36.398 109.892 36.118C109.892 35.8473 109.985 35.6233 110.172 35.446C110.359 35.2593 110.583 35.166 110.844 35.166C111.105 35.166 111.325 35.2547 111.502 35.432C111.679 35.6093 111.768 35.838 111.768 36.118C111.768 36.398 111.675 36.6313 111.488 36.818C111.311 36.9953 111.096 37.084 110.844 37.084ZM113.694 26.612H115.038V37H113.694V26.612ZM117.604 29.58H118.948V37H117.604V29.58ZM118.276 28.152C118.015 28.152 117.795 28.068 117.618 27.9C117.45 27.732 117.366 27.5267 117.366 27.284C117.366 27.0413 117.45 26.836 117.618 26.668C117.795 26.4907 118.015 26.402 118.276 26.402C118.537 26.402 118.752 26.486 118.92 26.654C119.097 26.8127 119.186 27.0133 119.186 27.256C119.186 27.508 119.097 27.7227 118.92 27.9C118.752 28.068 118.537 28.152 118.276 28.152ZM125.476 29.51C126.419 29.51 127.166 29.7853 127.716 30.336C128.276 30.8773 128.556 31.6753 128.556 32.73V37H127.212V32.884C127.212 32.1653 127.04 31.624 126.694 31.26C126.349 30.896 125.854 30.714 125.21 30.714C124.482 30.714 123.908 30.9287 123.488 31.358C123.068 31.778 122.858 32.3847 122.858 33.178V37H121.514V29.58H122.802V30.7C123.073 30.3173 123.437 30.0233 123.894 29.818C124.361 29.6127 124.888 29.51 125.476 29.51ZM133.928 33.542L132.388 34.97V37H131.044V26.612H132.388V33.276L136.434 29.58H138.058L134.936 32.646L138.366 37H136.714L133.928 33.542ZM142.624 25.212H143.842L139.222 38.4H138.004L142.624 25.212ZM153.216 27.2V37H152.068L146.188 29.692V37H144.788V27.2H145.936L151.816 34.508V27.2H153.216ZM162.66 33.332C162.66 33.4347 162.65 33.57 162.632 33.738H156.612C156.696 34.3913 156.98 34.9187 157.466 35.32C157.96 35.712 158.572 35.908 159.3 35.908C160.186 35.908 160.9 35.6093 161.442 35.012L162.184 35.88C161.848 36.272 161.428 36.5707 160.924 36.776C160.429 36.9813 159.874 37.084 159.258 37.084C158.474 37.084 157.778 36.9253 157.172 36.608C156.565 36.2813 156.094 35.8287 155.758 35.25C155.431 34.6713 155.268 34.018 155.268 33.29C155.268 32.5713 155.426 31.9227 155.744 31.344C156.07 30.7653 156.514 30.3173 157.074 30C157.643 29.6733 158.282 29.51 158.992 29.51C159.701 29.51 160.331 29.6733 160.882 30C161.442 30.3173 161.876 30.7653 162.184 31.344C162.501 31.9227 162.66 32.5853 162.66 33.332ZM158.992 30.644C158.348 30.644 157.806 30.84 157.368 31.232C156.938 31.624 156.686 32.1373 156.612 32.772H161.372C161.297 32.1467 161.04 31.638 160.602 31.246C160.172 30.8447 159.636 30.644 158.992 30.644ZM169.053 37L166.911 34.158L164.741 37H163.243L166.169 33.206L163.383 29.58H164.881L166.925 32.254L168.955 29.58H170.425L167.625 33.206L170.579 37H169.053ZM176.217 36.566C176.021 36.734 175.779 36.8647 175.489 36.958C175.2 37.042 174.901 37.084 174.593 37.084C173.847 37.084 173.268 36.8833 172.857 36.482C172.447 36.0807 172.241 35.5067 172.241 34.76V30.686H170.981V29.58H172.241V27.956H173.585V29.58H175.713V30.686H173.585V34.704C173.585 35.1053 173.683 35.4133 173.879 35.628C174.085 35.8427 174.374 35.95 174.747 35.95C175.158 35.95 175.508 35.8333 175.797 35.6L176.217 36.566ZM185.15 35.782V37H178.038V27.2H184.954V28.418H179.438V31.428H184.352V32.618H179.438V35.782H185.15ZM193.664 29.58L190.416 37H189.044L185.796 29.58H187.196L189.744 35.53L192.348 29.58H193.664ZM201.419 33.332C201.419 33.4347 201.41 33.57 201.391 33.738H195.371C195.455 34.3913 195.74 34.9187 196.225 35.32C196.72 35.712 197.331 35.908 198.059 35.908C198.946 35.908 199.66 35.6093 200.201 35.012L200.943 35.88C200.607 36.272 200.187 36.5707 199.683 36.776C199.189 36.9813 198.633 37.084 198.017 37.084C197.233 37.084 196.538 36.9253 195.931 36.608C195.325 36.2813 194.853 35.8287 194.517 35.25C194.191 34.6713 194.027 34.018 194.027 33.29C194.027 32.5713 194.186 31.9227 194.503 31.344C194.83 30.7653 195.273 30.3173 195.833 30C196.403 29.6733 197.042 29.51 197.751 29.51C198.461 29.51 199.091 29.6733 199.641 30C200.201 30.3173 200.635 30.7653 200.943 31.344C201.261 31.9227 201.419 32.5853 201.419 33.332ZM197.751 30.644C197.107 30.644 196.566 30.84 196.127 31.232C195.698 31.624 195.446 32.1373 195.371 32.772H200.131C200.057 32.1467 199.8 31.638 199.361 31.246C198.932 30.8447 198.395 30.644 197.751 30.644ZM207.248 29.51C208.19 29.51 208.937 29.7853 209.488 30.336C210.048 30.8773 210.328 31.6753 210.328 32.73V37H208.984V32.884C208.984 32.1653 208.811 31.624 208.466 31.26C208.12 30.896 207.626 30.714 206.982 30.714C206.254 30.714 205.68 30.9287 205.26 31.358C204.84 31.778 204.63 32.3847 204.63 33.178V37H203.286V29.58H204.574V30.7C204.844 30.3173 205.208 30.0233 205.666 29.818C206.132 29.6127 206.66 29.51 207.248 29.51ZM216.987 36.566C216.791 36.734 216.548 36.8647 216.259 36.958C215.97 37.042 215.671 37.084 215.363 37.084C214.616 37.084 214.038 36.8833 213.627 36.482C213.216 36.0807 213.011 35.5067 213.011 34.76V30.686H211.751V29.58H213.011V27.956H214.355V29.58H216.483V30.686H214.355V34.704C214.355 35.1053 214.453 35.4133 214.649 35.628C214.854 35.8427 215.144 35.95 215.517 35.95C215.928 35.95 216.278 35.8333 216.567 35.6L216.987 36.566Z" fill="#59595B"/>
<path d="M251.5 20C245.71 20 241 24.7101 241 30.5C241 36.2899 245.71 41 251.5 41C257.29 41 262 36.2899 262 30.5C262 24.7101 257.29 20 251.5 20ZM256.822 28.2749L251.134 33.9623C250.964 34.1329 250.74 34.2188 250.516 34.2188C250.292 34.2188 250.068 34.1329 249.897 33.9623L247.053 31.1186C246.711 30.7765 246.711 30.2235 247.053 29.8814C247.395 29.5392 247.948 29.5392 248.291 29.8814L250.516 32.1065L255.585 27.0377C255.927 26.6955 256.48 26.6955 256.822 27.0377C257.164 27.3798 257.164 27.9327 256.822 28.2749Z" fill="#28C98B"/>
</g>
<defs>
<filter id="filter0_d" x="0" y="0" width="473" height="323" filterUnits="userSpaceOnUse" color-interpolation-filters="sRGB">
<feFlood flood-opacity="0" result="BackgroundImageFix"/>
<feColorMatrix in="SourceAlpha" type="matrix" values="0 0 0 0 0 0 0 0 0 0 0 0 0 0 0 0 0 0 127 0"/>
<feOffset dy="4"/>
<feGaussianBlur stdDeviation="5"/>
<feColorMatrix type="matrix" values="0 0 0 0 0 0 0 0 0 0 0 0 0 0 0 0 0 0 0.1 0"/>
<feBlend mode="normal" in2="BackgroundImageFix" result="effect1_dropShadow"/>
<feBlend mode="normal" in="SourceGraphic" in2="effect1_dropShadow" result="shape"/>
</filter>
<filter id="filter1_d" x="152" y="240" width="208" height="83" filterUnits="userSpaceOnUse" color-interpolation-filters="sRGB">
<feFlood flood-opacity="0" result="BackgroundImageFix"/>
<feColorMatrix in="SourceAlpha" type="matrix" values="0 0 0 0 0 0 0 0 0 0 0 0 0 0 0 0 0 0 127 0"/>
<feOffset dy="4"/>
<feGaussianBlur stdDeviation="5"/>
<feColorMatrix type="matrix" values="0 0 0 0 0 0 0 0 0 0 0 0 0 0 0 0 0 0 0.1 0"/>
<feBlend mode="normal" in2="BackgroundImageFix" result="effect1_dropShadow"/>
<feBlend mode="normal" in="SourceGraphic" in2="effect1_dropShadow" result="shape"/>
</filter>
<filter id="filter2_d" x="302" y="17" width="171" height="83" filterUnits="userSpaceOnUse" color-interpolation-filters="sRGB">
<feFlood flood-opacity="0" result="BackgroundImageFix"/>
<feColorMatrix in="SourceAlpha" type="matrix" values="0 0 0 0 0 0 0 0 0 0 0 0 0 0 0 0 0 0 127 0"/>
<feOffset dy="4"/>
<feGaussianBlur stdDeviation="5"/>
<feColorMatrix type="matrix" values="0 0 0 0 0 0 0 0 0 0 0 0 0 0 0 0 0 0 0.15 0"/>
<feBlend mode="normal" in2="BackgroundImageFix" result="effect1_dropShadow"/>
<feBlend mode="normal" in="SourceGraphic" in2="effect1_dropShadow" result="shape"/>
</filter>
<clipPath id="clip0">
<rect width="36" height="36" fill="white" transform="translate(326 36)"/>
</clipPath>
</defs>
</svg>
