<svg width="385" height="432" viewBox="0 0 385 432" fill="none" xmlns="http://www.w3.org/2000/svg">
<path d="M192.851 222.335C194.357 224.348 196.278 226.013 198.484 227.218C200.69 228.424 203.13 229.14 205.637 229.32C208.144 229.5 210.661 229.138 213.016 228.259C215.372 227.381 217.51 226.006 219.288 224.228L229.806 213.709C232.999 210.403 234.766 205.975 234.726 201.378C234.687 196.782 232.843 192.385 229.592 189.135C226.342 185.884 221.945 184.041 217.349 184.001C212.752 183.961 208.324 185.728 205.018 188.921L198.987 194.917" stroke="#10BDE5" stroke-width="10" stroke-linecap="round" stroke-linejoin="round"/>
<path d="M206.876 215.322C205.37 213.309 203.449 211.644 201.243 210.438C199.037 209.233 196.598 208.516 194.09 208.337C191.583 208.157 189.066 208.519 186.711 209.398C184.355 210.276 182.217 211.651 180.439 213.429L169.921 223.947C166.728 227.254 164.961 231.682 165.001 236.278C165.041 240.875 166.884 245.272 170.135 248.522C173.385 251.772 177.782 253.616 182.378 253.656C186.975 253.696 191.403 251.929 194.709 248.736L200.705 242.74" stroke="#10BDE5" stroke-width="10" stroke-linecap="round" stroke-linejoin="round"/>
<circle cx="199" cy="227" r="167.5" stroke="#DAD9D9" stroke-width="5" stroke-dasharray="5 5"/>
<circle cx="199" cy="382" r="50" fill="white"/>
<g clip-path="url(#clip0)">
<path d="M219.136 359.45C218.36 358.601 217.042 358.541 216.19 359.319L202.062 372.244L193.04 364.425C192.256 363.746 191.092 363.746 190.309 364.425L174.741 377.909C173.87 378.662 173.775 379.979 174.529 380.849C174.941 381.325 175.522 381.57 176.106 381.57C176.589 381.57 177.076 381.402 177.47 381.061L191.673 368.76L200.734 376.611C201.532 377.303 202.724 377.289 203.507 376.574L219.006 362.395C219.854 361.618 219.913 360.3 219.136 359.45Z" fill="#C4C4C4"/>
<path d="M226.376 352.577C225.887 352.087 225.19 351.87 224.51 351.998L212.695 354.222C211.935 354.365 211.316 354.917 211.088 355.655C210.86 356.394 211.059 357.198 211.606 357.745L221.128 367.267C221.525 367.663 222.057 367.877 222.602 367.877C222.805 367.877 223.01 367.847 223.211 367.786C223.948 367.562 224.501 366.948 224.649 366.192L226.942 354.446C227.075 353.768 226.862 353.068 226.376 352.577ZM221.305 361.548L217.347 357.589L222.259 356.665L221.305 361.548Z" fill="#C4C4C4"/>
<path d="M231.915 406.868H169.085C167.933 406.868 167 407.801 167 408.953C167 410.105 167.933 411.038 169.085 411.038H231.915C233.067 411.038 234 410.105 234 408.953C234 407.801 233.067 406.868 231.915 406.868Z" fill="#C4C4C4"/>
<path d="M200.5 392.064C199.348 392.064 198.415 392.998 198.415 394.149V408.953C198.415 410.105 199.348 411.038 200.5 411.038C201.652 411.038 202.585 410.105 202.585 408.953V394.149C202.585 392.998 201.652 392.064 200.5 392.064Z" fill="#C4C4C4"/>
<path d="M192.16 379.554C191.008 379.554 190.075 380.487 190.075 381.639V408.953C190.075 410.105 191.008 411.038 192.16 411.038C193.312 411.038 194.245 410.105 194.245 408.953V381.639C194.245 380.487 193.311 379.554 192.16 379.554Z" fill="#C4C4C4"/>
<path d="M208.84 386.504C207.688 386.504 206.755 387.437 206.755 388.589V408.953C206.755 410.105 207.688 411.038 208.84 411.038C209.992 411.038 210.925 410.105 210.925 408.953V388.589C210.925 387.437 209.992 386.504 208.84 386.504Z" fill="#C4C4C4"/>
<path d="M217.18 371.909C216.029 371.909 215.095 372.842 215.095 373.994V408.953C215.095 410.105 216.029 411.038 217.18 411.038C218.332 411.038 219.266 410.105 219.266 408.953V373.994C219.265 372.842 218.332 371.909 217.18 371.909Z" fill="#C4C4C4"/>
<path d="M225.521 379.554C224.369 379.554 223.436 380.487 223.436 381.639V408.953C223.436 410.105 224.369 411.038 225.521 411.038C226.672 411.038 227.606 410.105 227.606 408.953V381.639C227.606 380.487 226.672 379.554 225.521 379.554Z" fill="#C4C4C4"/>
<path d="M183.819 397.624C182.668 397.624 181.734 398.558 181.734 399.71V408.953C181.734 410.105 182.668 411.038 183.819 411.038C184.971 411.038 185.905 410.105 185.905 408.953V399.71C185.905 398.558 184.971 397.624 183.819 397.624Z" fill="#C4C4C4"/>
<path d="M175.479 391.369C174.328 391.369 173.394 392.303 173.394 393.454V408.953C173.394 410.105 174.328 411.038 175.479 411.038C176.631 411.038 177.564 410.105 177.564 408.953V393.454C177.564 392.303 176.631 391.369 175.479 391.369Z" fill="#C4C4C4"/>
</g>
<circle cx="199" cy="59" r="59" fill="white"/>
<path d="M213.684 30.4111L180.401 48.4914H168.892C167.851 48.4914 167 49.331 167 50.3834V63.5938C167 64.6349 167.84 65.4858 168.892 65.4858H174.165C173.773 70.8483 176.852 76.0317 181.99 78.1588C183.569 78.8193 190.857 80.7002 196.791 74.386L213.695 83.5661C215.822 84.3497 216.494 82.5585 216.494 81.9091V32.0679C216.483 31.4074 215.856 29.6945 213.684 30.4111ZM170.784 61.7129V52.2641H179.001V61.7129H170.784ZM183.446 74.6771C179.752 73.1545 177.568 69.3594 177.971 65.497H180.423L193.399 72.55C190.879 75.1919 186.928 76.1212 183.446 74.6771ZM182.774 62.4855V51.514L212.71 35.2361V78.7296L182.774 62.4855Z" fill="#C4C4C4"/>
<path d="M228.753 41.3488C228.025 40.5988 226.839 40.5539 226.077 41.2816L220.412 46.6889C219.662 47.4165 219.584 48.6593 220.345 49.3646C221.263 50.1818 222.663 49.7676 223.021 49.4095L228.686 44.0245C229.436 43.2969 229.481 42.1101 228.753 41.3488Z" fill="#C4C4C4"/>
<path d="M233.108 55.0966H225.305C224.264 55.0966 223.413 55.9361 223.413 56.9885C223.413 58.0297 224.252 58.8805 225.305 58.8805H233.108C234.149 58.8805 235 58.0409 235 56.9885C235 55.9361 234.149 55.0966 233.108 55.0966Z" fill="#C4C4C4"/>
<path d="M228.686 69.9639L223.021 64.579C222.271 63.8513 221.062 63.8849 220.345 64.6462C219.618 65.3962 219.651 66.6053 220.412 67.3219L226.077 72.7069C226.436 73.0539 227.913 73.4794 228.753 72.6397C229.492 71.9006 229.447 70.6804 228.686 69.9639Z" fill="#C4C4C4"/>
<circle cx="341" cy="298" r="44" fill="white"/>
<path d="M340.988 315.546C342.121 315.546 343.039 314.627 343.039 313.495V305C343.039 303.867 342.121 302.949 340.988 302.949C339.856 302.949 338.938 303.867 338.938 305V313.495C338.938 314.627 339.856 315.546 340.988 315.546Z" fill="#C4C4C4"/>
<path d="M364.492 285.495H354.786V275.504C354.786 268.609 348.596 263 340.988 263C333.381 263 327.191 268.609 327.191 275.504V285.495H317.484C316.352 285.495 315.434 286.413 315.434 287.545V313.772C315.434 324.374 324.059 333 334.661 333H347.316C357.918 333 366.543 324.374 366.543 313.772V287.545C366.543 286.413 365.625 285.495 364.492 285.495ZM331.292 275.504C331.292 270.871 335.642 267.102 340.988 267.102C346.335 267.102 350.685 270.871 350.685 275.504V285.495H331.292V275.504ZM362.441 313.772C362.441 322.113 355.656 328.898 347.315 328.898H334.661C326.321 328.898 319.535 322.113 319.535 313.772V289.596H362.441V313.772Z" fill="#C4C4C4"/>
<circle cx="48" cy="298" r="48" fill="white"/>
<g clip-path="url(#clip1)">
<path d="M78.0318 292.002L73.5047 291.238C72.9287 289.158 72.0913 287.122 71.0023 285.158L73.6685 281.366C74.3288 280.427 74.2178 279.15 73.4064 278.338L67.584 272.515C66.7664 271.697 65.475 271.593 64.537 272.267L60.7613 274.98C58.8624 273.919 56.803 273.076 54.6839 272.494L53.9198 267.967C53.7286 266.832 52.7441 266 51.592 266H43.4079C42.2558 266 41.2722 266.832 41.0802 267.967L40.3161 272.495C38.2355 273.07 36.2005 273.909 34.2356 274.998L30.4441 272.331C29.506 271.673 28.2274 271.782 27.4168 272.593L21.5937 278.417C20.7823 279.228 20.6714 280.505 21.3317 281.444L23.989 285.224C22.9228 287.127 22.0776 289.192 21.4937 291.316L16.9673 292.08C15.8318 292.272 15 293.256 15 294.408V302.592C15 303.744 15.8318 304.729 16.9673 304.92L21.4952 305.685C22.0704 307.765 22.9085 309.8 23.9975 311.765L21.3314 315.557C20.6711 316.496 20.7821 317.773 21.5934 318.584L27.4167 324.406C28.228 325.218 29.5052 325.328 30.444 324.668L34.2236 322.011C36.1264 323.077 38.1905 323.922 40.316 324.506L41.0801 329.033C41.2721 330.168 42.2558 331 43.4078 331H51.5918C52.7439 331 53.7283 330.168 53.9195 329.031L54.6844 324.504C56.765 323.928 58.8 323.091 60.7649 322.002L64.5564 324.668C65.496 325.327 66.7731 325.218 67.5837 324.406L73.4062 318.583C74.2191 317.77 74.3285 316.488 73.6643 315.551L70.9344 311.693C71.9983 309.792 72.8426 307.73 73.4259 305.609L78.027 304.842C79.1649 304.652 79.9999 303.668 79.9999 302.514V294.33C80 293.177 79.1682 292.194 78.0318 292.002ZM75.2777 300.514L71.1125 301.209C70.154 301.368 69.3908 302.099 69.1908 303.051C68.6329 305.701 67.5752 308.284 66.1328 310.52C65.611 311.33 65.6331 312.377 66.1894 313.163L68.6595 316.654L65.6479 319.664L62.2351 317.265C61.4584 316.719 60.4307 316.69 59.6264 317.194C57.2294 318.692 54.7066 319.727 52.1286 320.27C51.1787 320.47 50.4485 321.231 50.2871 322.188L49.5962 326.279H45.4035L44.7119 322.187C44.5505 321.231 43.8203 320.47 42.8713 320.27C40.2194 319.712 37.6366 318.654 35.4017 317.212C34.5943 316.691 33.5509 316.712 32.7639 317.264L29.3518 319.664L26.3356 316.648L28.7349 313.235C29.2811 312.459 29.3086 311.431 28.8058 310.627C27.3075 308.23 26.2734 305.707 25.7305 303.129C25.5306 302.18 24.7704 301.449 23.8135 301.287L19.7215 300.596V296.404L23.8144 295.712C24.7712 295.551 25.5314 294.82 25.7313 293.871C26.2893 291.22 27.3461 288.637 28.7885 286.402C29.3094 285.594 29.289 284.551 28.7358 283.764L26.3365 280.352L29.3528 277.336L32.7649 279.735C33.5409 280.281 34.5693 280.309 35.3736 279.806C37.7706 278.307 40.2934 277.273 42.8714 276.73C43.8213 276.531 44.5515 275.77 44.7129 274.813L45.4038 270.722H49.5965L50.2874 274.814C50.4487 275.771 51.1797 276.531 52.1288 276.731C54.7808 277.289 57.3635 278.346 59.5975 279.789C60.4128 280.315 61.4673 280.287 62.2558 279.722L65.6632 277.273L68.6645 280.274L66.2643 283.687C65.7182 284.464 65.6898 285.491 66.1935 286.296C67.691 288.692 68.7266 291.215 69.2695 293.794C69.4694 294.743 70.2303 295.473 71.1873 295.635L75.2777 296.326V300.514Z" fill="#C4C4C4"/>
<path d="M47.5 285.437C40.3406 285.437 34.5157 291.262 34.5157 298.421C34.5157 305.581 40.3406 311.406 47.5 311.406C54.6586 311.406 60.4843 305.581 60.4843 298.421C60.4843 291.262 54.6594 285.437 47.5 285.437ZM47.5 306.684C42.9437 306.684 39.2373 302.978 39.2373 298.421C39.2373 293.865 42.9437 290.159 47.5 290.159C52.0564 290.159 55.7627 293.866 55.7627 298.421C55.7627 302.978 52.0564 306.684 47.5 306.684Z" fill="#C4C4C4"/>
</g>
<circle cx="48" cy="140" r="43" fill="white"/>
<g clip-path="url(#clip2)">
<path d="M47.6355 128.607C43.2654 128.607 39.71 132.163 39.71 136.533C39.71 140.903 43.2654 144.459 47.6355 144.459C52.0057 144.459 55.5611 140.903 55.5611 136.533C55.5611 132.163 52.0057 128.607 47.6355 128.607ZM47.6355 140.529C45.4321 140.529 43.64 138.736 43.64 136.533C43.64 134.33 45.4321 132.538 47.6355 132.538C49.8384 132.538 51.6311 134.33 51.6311 136.533C51.6311 138.737 49.8384 140.529 47.6355 140.529Z" fill="#C4C4C4"/>
<path d="M47.6356 140.594C46.5502 140.594 45.6705 141.474 45.6705 142.559V165.877C45.6705 166.963 46.5502 167.843 47.6356 167.843C48.7209 167.843 49.6006 166.963 49.6006 165.877V142.559C49.6006 141.474 48.7209 140.594 47.6356 140.594Z" fill="#C4C4C4"/>
<path d="M47.6356 118.717C46.5502 118.717 45.6705 119.596 45.6705 120.682V130.572C45.6705 131.658 46.5502 132.537 47.6356 132.537C48.7209 132.537 49.6006 131.658 49.6006 130.572V120.682C49.6006 119.596 48.7209 118.717 47.6356 118.717Z" fill="#C4C4C4"/>
<path d="M65.5828 142.101C61.2132 142.101 57.6572 145.656 57.6572 150.026C57.6572 154.396 61.2132 157.952 65.5828 157.952C69.953 157.952 73.5084 154.396 73.5084 150.026C73.5084 145.656 69.9524 142.101 65.5828 142.101ZM65.5828 154.022C63.3787 154.022 61.5866 152.23 61.5866 150.026C61.5866 147.823 63.3794 146.031 65.5828 146.031C67.7863 146.031 69.5784 147.823 69.5784 150.026C69.5784 152.23 67.7856 154.022 65.5828 154.022Z" fill="#C4C4C4"/>
<path d="M65.5828 154.022C64.4975 154.022 63.6178 154.901 63.6178 155.987V165.877C63.6178 166.963 64.4975 167.842 65.5828 167.842C66.6688 167.842 67.5478 166.963 67.5478 165.877V155.987C67.5478 154.901 66.6682 154.022 65.5828 154.022Z" fill="#C4C4C4"/>
<path d="M65.5828 118.717C64.4975 118.717 63.6178 119.596 63.6178 120.682V144C63.6178 145.086 64.4975 145.965 65.5828 145.965C66.6688 145.965 67.5478 145.086 67.5478 144V120.682C67.5478 119.596 66.6682 118.717 65.5828 118.717Z" fill="#C4C4C4"/>
<path d="M29.6883 142.101C25.3181 142.101 21.7627 145.656 21.7627 150.026C21.7627 154.396 25.3181 157.952 29.6883 157.952C34.0585 157.952 37.6139 154.396 37.6139 150.026C37.614 145.656 34.0586 142.101 29.6883 142.101ZM29.6883 154.022C27.4848 154.022 25.6927 152.23 25.6927 150.026C25.6927 147.823 27.4848 146.031 29.6883 146.031C31.8917 146.031 33.6838 147.823 33.6838 150.026C33.6838 152.23 31.8917 154.022 29.6883 154.022Z" fill="#C4C4C4"/>
<path d="M29.6883 154.022C28.6029 154.022 27.7233 154.901 27.7233 155.987V165.877C27.7233 166.963 28.6029 167.842 29.6883 167.842C30.7736 167.842 31.6533 166.963 31.6533 165.877V155.987C31.6533 154.901 30.7736 154.022 29.6883 154.022Z" fill="#C4C4C4"/>
<path d="M29.6883 118.717C28.6029 118.717 27.7233 119.596 27.7233 120.682V144C27.7233 145.086 28.6029 145.965 29.6883 145.965C30.7736 145.965 31.6533 145.086 31.6533 144V120.682C31.6533 119.596 30.7736 118.717 29.6883 118.717Z" fill="#C4C4C4"/>
</g>
<circle cx="337" cy="144" r="48" fill="white"/>
<g clip-path="url(#clip3)">
<path d="M364.554 155.936L355.768 147.15L360.077 142.841C360.45 142.468 360.604 141.928 360.482 141.414C360.361 140.9 359.982 140.486 359.481 140.319L333.628 131.701C333.08 131.518 332.477 131.661 332.069 132.069C331.661 132.477 331.518 133.08 331.701 133.628L340.319 159.481C340.486 159.982 340.9 160.361 341.414 160.482C341.928 160.604 342.468 160.45 342.841 160.077L347.15 155.768L355.936 164.554C356.234 164.851 356.623 165 357.013 165C357.403 165 357.793 164.851 358.09 164.554L364.554 158.09C365.149 157.495 365.149 156.531 364.554 155.936ZM357.013 161.322L348.227 152.536C347.632 151.941 346.668 151.941 346.073 152.536L342.43 156.179L335.555 135.555L356.179 142.43L352.536 146.073C351.942 146.667 351.941 147.632 352.536 148.227L361.322 157.013L357.013 161.322Z" fill="#C4C4C4"/>
<path d="M332.805 125.188C333.646 125.188 334.328 124.505 334.328 123.664V114.523C334.328 113.682 333.646 113 332.805 113C331.963 113 331.281 113.682 331.281 114.523V123.664C331.281 124.505 331.963 125.188 332.805 125.188Z" fill="#C4C4C4"/>
<path d="M320.955 118.801C320.36 118.206 319.396 118.206 318.801 118.801C318.206 119.396 318.206 120.36 318.801 120.955L325.264 127.419C325.859 128.014 326.824 128.014 327.418 127.419C328.013 126.824 328.013 125.859 327.418 125.264L320.955 118.801Z" fill="#C4C4C4"/>
<path d="M325.264 138.191L318.801 144.654C318.206 145.249 318.206 146.214 318.801 146.809C319.395 147.404 320.36 147.404 320.955 146.809L327.418 140.345C328.013 139.75 328.013 138.786 327.418 138.191C326.824 137.596 325.859 137.596 325.264 138.191Z" fill="#C4C4C4"/>
<path d="M340.345 127.419L346.809 120.955C347.404 120.36 347.404 119.396 346.809 118.801C346.214 118.206 345.249 118.206 344.654 118.801L338.191 125.264C337.596 125.859 337.596 126.824 338.191 127.419C338.786 128.014 339.75 128.014 340.345 127.419Z" fill="#C4C4C4"/>
<path d="M325.188 132.805C325.188 131.963 324.505 131.281 323.664 131.281H314.523C313.682 131.281 313 131.963 313 132.805C313 133.646 313.682 134.328 314.523 134.328H323.664C324.505 134.328 325.188 133.646 325.188 132.805Z" fill="#C4C4C4"/>
</g>
<defs>
<clipPath id="clip0">
<rect x="167" y="348" width="67" height="67" fill="white"/>
</clipPath>
<clipPath id="clip1">
<rect x="15" y="266" width="65" height="65" fill="white"/>
</clipPath>
<clipPath id="clip2">
<rect x="21.7627" y="117.407" width="51.7458" height="51.7458" fill="white"/>
</clipPath>
<clipPath id="clip3">
<rect x="313" y="113" width="52" height="52" fill="white"/>
</clipPath>
</defs>
</svg>
