<svg width="150" height="150" viewBox="0 0 150 150" fill="none" xmlns="http://www.w3.org/2000/svg">
<g clip-path="url(#clip0)">
<path d="M92.7529 128.637H15V3H92.7529V128.637Z" fill="#F7F7F7"/>
<path d="M84.8508 10.9024H22.9021V17.6268H84.8508V10.9024Z" fill="#DADADA"/>
<path d="M84.8508 114.011H22.9021V120.735H84.8508V114.011Z" fill="#DADADA"/>
<path d="M84.8508 98.9287H22.9021V105.653H84.8508V98.9287Z" fill="#DADADA"/>
<path d="M84.8508 83.8468H22.9021V90.5711H84.8508V83.8468Z" fill="#DADADA"/>
<path d="M84.8508 68.7648H22.9021V75.4892H84.8508V68.7648Z" fill="#DADADA"/>
<path d="M121.035 83.0762V71.1411L141.385 91.4907C144.165 94.2712 146.338 97.5494 147.814 101.115C149.291 104.681 150.073 108.535 150.073 112.467L158 118.226L139.345 143.233L126.241 135.508H122.03C117.254 135.508 112.551 134.357 108.315 132.149L83.2976 119.104V118.719H112.871H114.839C118.263 118.719 121.035 115.946 121.035 112.526V83.0762Z" fill="#FCD18B"/>
<path d="M68.4717 89.9874V91.4287C67.8721 91.3212 67.2829 91.1329 66.7237 90.8692C67.2696 90.4849 67.8585 90.1919 68.4717 89.9874Z" fill="#FCD18B"/>
<path d="M68.4717 75.5221V77.1196C68.3857 77.0469 68.3051 76.9688 68.2242 76.8882L66.866 75.53C67.1403 75.4949 67.4172 75.4788 67.6941 75.4788C67.9527 75.4791 68.2134 75.4923 68.4717 75.5221Z" fill="#FCD18B"/>
<path d="M114.84 22.7426H74.6691C71.246 22.7426 68.4707 25.5147 68.4707 28.9379V112.526C68.4707 115.946 71.246 118.718 74.6691 118.718H112.871C109.549 114.603 108.642 109.189 110.143 104.359H70.9552V35.4113H118.554V80.5955L121.036 83.0768V28.9379C121.035 25.5147 118.263 22.7426 114.84 22.7426ZM94.7528 106.821C97.4648 106.821 99.6585 109.018 99.6585 111.727C99.6585 114.439 97.4648 116.632 94.7528 116.632C92.044 116.632 89.8472 114.439 89.8472 111.727C89.8475 109.018 92.0443 106.821 94.7528 106.821Z" fill="#7ADEF5"/>
<path d="M65.7527 101.599L67.7804 103.627C68.001 103.845 68.2321 104.046 68.4717 104.229V91.4287C67.8721 91.3212 67.2829 91.1328 66.7237 90.8692C66.382 91.1006 66.0568 91.3696 65.753 91.6733C63.0123 94.4166 63.0123 98.8592 65.7527 101.599Z" fill="#FCD18B"/>
<path d="M62.7328 87.4596L64.7605 89.4873C65.3468 90.0736 66.0109 90.5361 66.7237 90.8695C67.2696 90.4849 67.8585 90.1919 68.4717 89.9873V77.1192C68.3857 77.0465 68.3051 76.9688 68.2242 76.8882L66.8663 75.53C65.3551 75.7076 63.8919 76.3742 62.7328 77.5333C59.9924 80.2738 59.9924 84.7192 62.7328 87.4596Z" fill="#FCD18B"/>
<path d="M68.4717 75.5221V59.704C68.3023 59.6932 68.1328 59.685 67.9659 59.685C66.1696 59.685 64.3759 60.3709 63.0044 61.7424C60.2639 64.4825 60.2639 68.9254 63.0044 71.6655L66.866 75.53C67.1403 75.4949 67.4172 75.4788 67.6941 75.4788C67.9527 75.4788 68.2134 75.4924 68.4717 75.5221Z" fill="#FCD18B"/>
<path d="M118.556 35.4122V80.5968L111.389 73.4299C108.358 70.3964 103.439 70.3964 100.406 73.4299C98.8894 74.9465 98.1311 76.9312 98.1311 78.9212C98.1311 80.9088 98.8894 82.896 100.406 84.4129L109.351 93.3571C111.698 95.705 112.387 99.2869 110.956 102.283C110.633 102.958 110.362 103.654 110.144 104.359H70.9536V35.4122H118.556Z" fill="white"/>
<path d="M94.7534 106.822C97.4642 106.822 99.6584 109.019 99.6584 111.727C99.6584 114.438 97.4639 116.632 94.7534 116.632C92.0452 116.632 89.8484 114.438 89.8484 111.727C89.8481 109.019 92.0452 106.822 94.7534 106.822Z" fill="#10BDE5"/>
<path d="M130.296 88.62L121.035 79.3587V83.0762L128.438 90.4789C129.266 91.3067 130.681 90.7204 130.681 89.5496C130.681 89.2006 130.543 88.8662 130.296 88.62Z" fill="#DDB57A"/>
<path d="M121.035 71.1411L124.152 74.2581V83.9483L121.035 83.0762V71.1411Z" fill="#DDB57A"/>
<path d="M89.8579 59.9217H75.605V45.6689H89.8579V59.9217ZM79.1009 56.4255H86.3617V49.1647H79.1009V56.4255Z" fill="#10BDE5"/>
<path d="M84.2471 51.2797H81.2159V54.3109H84.2471V51.2797Z" fill="#10BDE5"/>
<path d="M89.8579 83.9656H75.605V69.7127H89.8579V83.9656ZM79.1009 80.4694H86.3617V73.2086H79.1009V80.4694Z" fill="#10BDE5"/>
<path d="M84.2471 75.3235H81.2159V78.3548H84.2471V75.3235Z" fill="#10BDE5"/>
<path d="M113.902 59.9217H99.6489V45.6689H113.902V59.9217ZM103.145 56.4255H110.406V49.1647H103.145V56.4255Z" fill="#10BDE5"/>
<path d="M108.291 51.2797V54.3106H105.26V51.2797H108.291Z" fill="#10BDE5"/>
<path d="M96.269 51.2797V54.3106H93.2378V51.2797H96.269Z" fill="#10BDE5"/>
<path d="M96.269 54.3106V57.3422H93.2378V54.3106H96.269Z" fill="#10BDE5"/>
<path d="M96.269 66.3329V69.3641H93.2378V66.3329H96.269Z" fill="#10BDE5"/>
<path d="M99.3831 69.4469V72.4782H96.3519V69.4469H99.3831Z" fill="#10BDE5"/>
<path d="M99.3831 72.4782V75.5094H96.3519V72.4782H99.3831Z" fill="#10BDE5"/>
<path d="M102.476 75.5707V78.602H99.4444V75.5707H102.476Z" fill="#10BDE5"/>
<path d="M102.476 78.602V81.6332H99.4444V78.602H102.476Z" fill="#10BDE5"/>
<path d="M113.902 80.9344V83.9656H110.871V80.9344H113.902Z" fill="#10BDE5"/>
<path d="M110.871 75.5707V78.602H107.839V75.5707H110.871Z" fill="#10BDE5"/>
<path d="M113.902 75.5707V78.602H110.871V75.5707H113.902Z" fill="#10BDE5"/>
<path d="M110.871 62.4763V65.5076H107.839V62.4763H110.871Z" fill="#10BDE5"/>
<path d="M113.902 62.4763V65.5076H110.871V62.4763H113.902Z" fill="#10BDE5"/>
<path d="M96.3519 75.5707V78.602H93.3206V75.5707H96.3519Z" fill="#10BDE5"/>
<path d="M93.2378 63.3016V66.3329H90.2066V63.3016H93.2378Z" fill="#10BDE5"/>
<path d="M103.609 65.8012V68.8328H100.578V65.8012H103.609Z" fill="#10BDE5"/>
<path d="M106.641 65.8012V68.8328H103.609V65.8012H106.641Z" fill="#10BDE5"/>
<path d="M106.641 68.8328V71.8637H103.609V68.8328H106.641Z" fill="#10BDE5"/>
<path d="M103.609 62.7703V65.8012H100.578V62.7703H103.609Z" fill="#10BDE5"/>
<path d="M100.578 62.7703V65.8012H97.547V62.7703H100.578Z" fill="#10BDE5"/>
<path d="M85.6281 63.3016H82.5968V66.3329H85.6281V63.3016Z" fill="#10BDE5"/>
<path d="M78.6363 63.3016H75.605V66.3329H78.6363V63.3016Z" fill="#10BDE5"/>
<path d="M96.269 57.3422V60.3731H93.2378V57.3422H96.269Z" fill="#10BDE5"/>
<path d="M55.773 26.7603H22.9021V59.6312H55.773V26.7603Z" fill="white"/>
<path d="M46.464 50.3222H32.2111V36.0694H46.464V50.3222ZM35.707 46.8263H42.9678V39.5656H35.707V46.8263Z" fill="#7ADEF5"/>
<path d="M40.8531 41.6802H37.8219V44.7114H40.8531V41.6802Z" fill="#7ADEF5"/>
<path d="M110.871 83.9656V80.9344H113.902V83.9656H110.871ZM99.4444 78.602V75.5707H102.476V78.602V81.6332H99.4444V78.602ZM107.839 78.602V75.5707H110.871V78.602H107.839ZM106.641 71.1901V71.864H103.609V71.4983C102.437 71.8587 101.334 72.5025 100.406 73.4302C100.015 73.8215 99.6736 74.2445 99.3831 74.6904V75.5097H98.9182C98.3935 76.5825 98.1311 77.7511 98.1311 78.9216C98.1311 80.9091 98.8894 82.8963 100.406 84.4132L109.351 93.3574C111.698 95.7053 112.387 99.2872 110.956 102.283C110.633 102.958 110.362 103.655 110.144 104.359H103.281H110.143C108.642 109.189 109.549 114.603 112.871 118.719H114.187C117.952 118.719 121.007 115.681 121.035 111.923V83.0765L118.554 80.5962L113.902 75.9434V78.6026H110.871V75.5714H113.53L111.389 73.4305C110.062 72.102 108.374 71.3554 106.641 71.1901ZM118.554 35.4113H92.7529V35.4119H118.554V35.4113Z" fill="white"/>
<path d="M92.7529 35.4113H82.2678L92.7529 35.4119V35.4113ZM92.7529 22.7426H78.4049H92.7529Z" fill="#EEEEEE"/>
<path d="M121.035 83.0768L121.035 111.923C121.035 111.905 121.035 111.888 121.035 111.87V83.0758L121.035 83.0755" fill="#FDE0B0"/>
<path d="M110.143 104.359H103.281L107.656 118.718H112.871C109.549 114.603 108.642 109.189 110.143 104.359ZM114.84 22.7426H92.7529H78.4049L82.2675 35.4113H92.7526H118.554L118.555 35.4119V80.5965L118.554 80.5949V80.5955L121.035 83.0765L121.035 83.0768L121.035 83.0758V79.3587V71.1411L121.035 71.1414V28.9379C121.035 25.5163 118.262 22.7426 114.84 22.7426Z" fill="#10BDE5"/>
<path d="M105.26 54.3106V51.2793H108.291V54.3106H105.26ZM110.406 49.1647H103.145V56.4255H110.406V49.1647ZM93.2378 69.3641V66.3329H96.2691V69.3641H93.2378ZM100.578 68.8328V65.8015H103.609V68.8328H100.578ZM100.578 62.7703H103.609V65.8015H100.578H97.547V62.7703H100.578ZM107.839 65.5076V62.4763H110.871V65.5076H107.839ZM110.871 65.5076V62.4763H113.902V65.5076H110.871ZM93.2378 54.3106V51.2793H96.2691V54.3106V57.3418V60.3731H93.2378V57.3418V54.3106ZM99.649 59.9217V45.6689H113.902V59.9217H99.649ZM118.556 35.4122H118.554H92.7533H82.2684L85.3939 45.6689H89.8582V59.9217H89.7372L90.767 63.3016H93.2381V66.3329H91.6906L94.5056 75.5707H96.3519V78.602H95.4292L99.33 91.4028L103.281 104.359H110.144C110.362 103.655 110.633 102.958 110.956 102.283C112.387 99.2872 111.698 95.7053 109.351 93.3574L100.406 84.4132C98.8894 82.8963 98.1311 80.9091 98.1311 78.9216C98.1311 77.7511 98.3935 76.5825 98.9182 75.5097H96.3519V72.4785V69.4472H99.3831V72.4785V74.6901C99.6736 74.2441 100.015 73.8215 100.406 73.4299C101.334 72.5022 102.437 71.8583 103.609 71.498V68.8325V65.8012H106.641V68.8325V71.1898C108.374 71.3551 110.062 72.1017 111.389 73.4296L113.53 75.5704H113.902V75.9425L118.554 80.5949L118.556 80.5965V35.4122Z" fill="white"/>
<path d="M89.8579 45.6689H85.3936L89.7369 59.9217H89.8579V45.6689Z" fill="#1E9EBC"/>
<path d="M103.145 56.4255V49.1647H110.406V56.4255H103.145ZM113.902 45.6689H99.6489V59.9217H113.902V45.6689Z" fill="#1E9EBC"/>
<path d="M108.291 51.2797H105.26V54.3106H108.291V51.2797Z" fill="#1E9EBC"/>
<path d="M96.269 51.2797H93.2378V54.3106H96.269V51.2797Z" fill="#1E9EBC"/>
<path d="M96.269 54.3106H93.2378V57.3422H96.269V54.3106Z" fill="#1E9EBC"/>
<path d="M96.269 66.3329H93.2378V69.3641H96.269V66.3329Z" fill="#1E9EBC"/>
<path d="M99.3831 69.4469H96.3519V72.4782H99.3831V69.4469Z" fill="#1E9EBC"/>
<path d="M99.3831 72.4782H96.3519V75.5094H98.9182H99.3831V74.6898V72.4782Z" fill="#1E9EBC"/>
<path d="M102.476 75.5707H99.4444V78.602H102.476V75.5707Z" fill="#1E9EBC"/>
<path d="M102.476 78.602H99.4444V81.6332H102.476V78.602Z" fill="#1E9EBC"/>
<path d="M113.902 80.9344H110.871V83.9656H113.902V80.9344Z" fill="#1E9EBC"/>
<path d="M110.871 75.5707H107.839V78.602H110.871V75.5707Z" fill="#1E9EBC"/>
<path d="M113.902 75.5707H113.53H110.871V78.602H113.902V75.9428V75.5707Z" fill="#1E9EBC"/>
<path d="M110.871 62.4763H107.839V65.5076H110.871V62.4763Z" fill="#1E9EBC"/>
<path d="M113.902 62.4763H110.871V65.5076H113.902V62.4763Z" fill="#1E9EBC"/>
<path d="M96.3519 75.5707H94.5053L95.4292 78.602H96.3519V75.5707Z" fill="#1E9EBC"/>
<path d="M93.2378 63.3016H90.7667L91.6903 66.3329H93.2378V63.3016Z" fill="#1E9EBC"/>
<path d="M103.609 65.8012H100.578V68.8328H103.609V65.8012Z" fill="#1E9EBC"/>
<path d="M106.641 65.8012H103.609V68.8328H106.641V65.8012Z" fill="#1E9EBC"/>
<path d="M106.641 68.8328H103.609V71.498V71.8637H106.641V71.1901V68.8328Z" fill="#1E9EBC"/>
<path d="M103.609 62.7703H100.578V65.8012H103.609V62.7703Z" fill="#1E9EBC"/>
<path d="M100.578 62.7703H97.547V65.8012H100.578V62.7703Z" fill="#1E9EBC"/>
<path d="M96.269 57.3422H93.2378V60.3731H96.269V57.3422Z" fill="#1E9EBC"/>
<path d="M121.035 83.0762V112.526C121.035 115.946 118.263 118.719 114.839 118.719H112.871C109.55 114.602 108.641 109.189 110.144 104.358H118.556V80.5965L121.035 83.0762Z" fill="#FCD18B"/>
<path d="M118.556 80.5965V104.358H110.144C110.361 103.654 110.633 102.957 110.956 102.282C112.386 99.2865 111.698 95.7047 109.35 93.3568L100.406 84.4125C98.8894 82.8957 98.1308 80.9084 98.1308 78.9212C98.1308 76.9311 98.8891 74.9465 100.406 73.4299C103.439 70.3964 108.358 70.3964 111.389 73.4299L118.556 80.5965Z" fill="#FCD18B"/>
<path d="M109.641 75.7737C107.811 73.9442 104.845 73.9442 103.016 75.7737C101.186 77.6032 101.186 80.5693 103.016 82.3988C104.845 84.2283 106.425 82.8416 108.254 81.0125C110.084 79.183 111.47 77.6032 109.641 75.7737Z" fill="white"/>
</g>
<defs>
<clipPath id="clip0">
<rect width="150" height="150" fill="white"/>
</clipPath>
</defs>
</svg>
