<svg width="150" height="150" viewBox="0 0 150 150" fill="none" xmlns="http://www.w3.org/2000/svg">
<path d="M115.645 87.1932H77.0322V64.839H72.9678V87.1941H34.3551C29.8716 87.1941 26.2263 90.8404 26.2263 95.3229V109.548H30.2907V95.3229C30.2907 93.0812 32.1143 91.2585 34.3551 91.2585H72.9678V109.548H77.0322V91.2585H115.645C117.886 91.2585 119.709 93.0812 119.709 95.3229V109.548H123.774V95.3229C123.775 90.8404 120.128 87.1932 115.645 87.1932Z" fill="#ECEAEC"/>
<path d="M72.9678 64.839H77.0322V72.9678H72.9678V64.839Z" fill="#DAD8DB"/>
<path d="M105.484 20.1288H75C73.7205 20.1288 72.516 19.527 71.7479 18.5032L68.6996 14.4388C67.549 12.9036 65.7417 12 63.8229 12H44.5161C42.2715 12 40.4517 13.8197 40.4517 16.0644V64.839C40.4517 67.0837 42.2715 68.9034 44.5161 68.9034H105.484C107.729 68.9034 109.548 67.0837 109.548 64.839V24.1932C109.548 21.9485 107.729 20.1288 105.484 20.1288Z" fill="#5CC8EA"/>
<path d="M87.0028 34.3551H83.1288C80.6274 34.3551 78.3492 35.276 76.5832 36.7862C75.6777 37.5611 74.3213 37.5611 73.4158 36.7862C71.6508 35.276 69.3725 34.3551 66.8712 34.3551H62.9971C57.4485 34.3551 52.7794 38.7233 52.6478 44.271C52.5122 49.9849 57.1217 54.678 62.8058 54.678H66.8702C69.3715 54.678 71.6508 53.7571 73.4158 52.2459C74.3213 51.4711 75.6777 51.4711 76.5832 52.2459C78.3482 53.7571 80.6274 54.678 83.1288 54.678H87.1932C92.8773 54.678 97.4878 49.9849 97.3512 44.271C97.2205 38.7233 92.5515 34.3551 87.0028 34.3551ZM66.8712 50.6127H62.8068C59.4442 50.6127 56.7102 47.8778 56.7102 44.5161C56.7102 41.1544 59.4442 38.4195 62.8068 38.4195H66.8712C70.2329 38.4195 72.9678 41.1544 72.9678 44.5161C72.9678 47.8778 70.2329 50.6127 66.8712 50.6127ZM87.1932 50.6127H83.1288C79.7671 50.6127 77.0322 47.8778 77.0322 44.5161C77.0322 41.1544 79.7671 38.4195 83.1288 38.4195H87.1932C90.5558 38.4195 93.2897 41.1544 93.2897 44.5161C93.2907 47.8778 90.5558 50.6127 87.1932 50.6127Z" fill="white"/>
<path d="M44.5161 12C42.2715 12 40.4517 13.8197 40.4517 16.0644V64.839C40.4517 67.0837 42.2715 68.9034 44.5161 68.9034H105.484C107.729 68.9034 109.548 67.0837 109.548 64.839H64.839C53.6149 64.839 44.5161 55.7403 44.5161 44.5161V12Z" fill="#10BDE5"/>
<path d="M77.0322 44.5161C77.0322 41.1544 79.7671 38.4195 83.1288 38.4195H66.8712C70.2329 38.4195 72.9678 41.1544 72.9678 44.5161C72.9678 47.8778 70.2329 50.6127 66.8712 50.6127H83.1288C79.7671 50.6127 77.0322 47.8778 77.0322 44.5161Z" fill="#9EE6F7"/>
<path d="M85.161 46.5483H64.839C63.7153 46.5483 62.8068 45.6379 62.8068 44.5161C62.8068 43.3942 63.7153 42.4839 64.839 42.4839H85.161C86.2847 42.4839 87.1941 43.3942 87.1941 44.5161C87.1932 45.6389 86.2847 46.5483 85.161 46.5483Z" fill="white"/>
<path d="M44.5161 121.741C44.5161 130.721 37.2371 138 28.2585 138C19.279 138 12 130.721 12 121.741C12 112.763 19.279 105.484 28.2585 105.484C37.2371 105.484 44.5161 112.763 44.5161 121.741Z" fill="#C3DDFF"/>
<path d="M32.3229 119.709C32.3229 121.954 30.5032 123.774 28.2585 123.774C26.0139 123.774 24.1942 121.954 24.1942 119.709C24.1942 117.465 26.0139 115.645 28.2585 115.645C30.5032 115.645 32.3229 117.465 32.3229 119.709Z" fill="#857E87"/>
<path d="M32.3229 133.936C23.3434 133.936 16.0644 126.657 16.0644 117.677C16.0644 114.226 17.1401 111.026 18.9743 108.394C14.758 111.332 12 116.214 12 121.742C12 130.721 19.279 138 28.2585 138C33.786 138 38.6685 135.241 41.6062 131.025C38.9742 132.859 35.774 133.936 32.3229 133.936Z" fill="#A4CCFF"/>
<path d="M32.3229 127.839H24.1932C21.9485 127.839 20.1288 129.659 20.1288 131.903V135.807C22.5224 137.193 25.2929 138 28.2576 138C31.2222 138 33.9937 137.193 36.3873 135.807V131.903C36.3873 129.659 34.5676 127.839 32.3229 127.839Z" fill="#857E87"/>
<path d="M32.3229 133.936C27.9375 133.936 23.9442 132.187 21.0199 129.364C20.4585 130.061 20.1288 130.939 20.1288 131.903V135.825C22.5224 137.211 25.2929 138 28.2585 138C31.2232 138 33.9937 137.211 36.3873 135.825V133.422C35.0838 133.762 33.7322 133.936 32.3229 133.936Z" fill="#6F6571"/>
<path d="M91.2585 121.741C91.2585 130.721 83.9795 138 75 138C66.0204 138 58.7415 130.721 58.7415 121.741C58.7415 112.763 66.0204 105.484 75 105.484C83.9795 105.484 91.2585 112.763 91.2585 121.741Z" fill="#F9C98C"/>
<path d="M79.0644 119.709C79.0644 121.954 77.2446 123.774 75 123.774C72.7554 123.774 70.9356 121.954 70.9356 119.709C70.9356 117.465 72.7554 115.645 75 115.645C77.2446 115.645 79.0644 117.465 79.0644 119.709Z" fill="#857E87"/>
<path d="M79.0644 133.936C70.0858 133.936 62.8058 126.657 62.8058 117.677C62.8058 114.226 63.8825 111.026 65.7157 108.394C61.4994 111.331 58.7415 116.214 58.7415 121.742C58.7415 130.721 66.0214 138 75 138C80.5284 138 85.4109 135.241 88.3477 131.025C85.7156 132.859 82.5155 133.936 79.0644 133.936Z" fill="#FEB85E"/>
<path d="M79.0644 127.839H70.9356C68.691 127.839 66.8712 129.659 66.8712 131.903V135.807C69.2639 137.193 72.0353 138 75 138C77.9647 138 80.7361 137.193 83.1288 135.807V131.903C83.1288 129.659 81.309 127.839 79.0644 127.839Z" fill="#857E87"/>
<path d="M79.0644 133.936C74.6789 133.936 70.6857 132.187 67.7614 129.364C67.2 130.061 66.8712 130.939 66.8712 131.903V135.825C69.2639 137.211 72.0353 138 75 138C77.9647 138 80.7361 137.211 83.1288 135.825V133.422C81.8253 133.762 80.4746 133.936 79.0644 133.936Z" fill="#6F6571"/>
<path d="M138 121.741C138 130.721 130.721 138 121.741 138C112.763 138 105.484 130.721 105.484 121.741C105.484 112.763 112.763 105.484 121.741 105.484C130.721 105.484 138 112.763 138 121.741Z" fill="#CCF49F"/>
<path d="M125.806 119.709C125.806 121.954 123.986 123.774 121.741 123.774C119.497 123.774 117.677 121.954 117.677 119.709C117.677 117.465 119.497 115.645 121.741 115.645C123.986 115.645 125.806 117.465 125.806 119.709Z" fill="#857E87"/>
<path d="M125.807 133.936C116.827 133.936 109.548 126.657 109.548 117.677C109.548 114.226 110.624 111.026 112.458 108.394C108.242 111.331 105.484 116.214 105.484 121.742C105.484 130.721 112.763 138 121.742 138C127.27 138 132.152 135.241 135.09 131.025C132.458 132.859 129.258 133.936 125.807 133.936Z" fill="#B3E59F"/>
<path d="M125.807 127.839H117.678C115.433 127.839 113.613 129.659 113.613 131.903V135.807C116.006 137.193 118.778 138 121.742 138C124.707 138 127.478 137.193 129.871 135.807V131.903C129.871 129.659 128.051 127.839 125.807 127.839Z" fill="#857E87"/>
<path d="M125.807 133.936C121.421 133.936 117.428 132.187 114.504 129.364C113.942 130.061 113.613 130.939 113.613 131.903V135.825C116.006 137.211 118.777 138 121.741 138C124.706 138 127.478 137.211 129.871 135.825V133.422C128.568 133.762 127.216 133.936 125.807 133.936Z" fill="#6F6571"/>
</svg>
